<svg width="95" height="95" viewBox="0 0 95 95" fill="none" xmlns="http://www.w3.org/2000/svg">
<path d="M74.1935 21.8065H68.6079C68.2339 20.7577 67.2403 20 66.0645 20H62.4516C61.2758 20 60.2822 20.7577 59.9082 21.8065H21.8065C20.8102 21.8065 20 22.6166 20 23.6129V25.4194C20 26.4156 20.8102 27.2258 21.8065 27.2258V55.2258C21.8065 57.7159 23.8325 59.7419 26.3226 59.7419H35.8841L30.8894 73.8928L30.8387 74.0392V76H36.9095L39.0167 69.6774H56.9833L59.0905 76H65.1613V74.0392L60.1159 59.7419H69.6774C72.1675 59.7419 74.1935 57.7159 74.1935 55.2258V27.2258C75.1898 27.2258 76 26.4156 76 25.4194V23.6129C76 22.6166 75.1898 21.8065 74.1935 21.8065ZM61.5484 47.0968V32.6452H63.3548V47.0968H61.5484ZM66.3146 48.9032L64.2581 52.5016L62.2015 48.9032H66.3146ZM66.9677 47.0968H65.1613V32.6452H66.9677V47.0968ZM66.9677 30.8387H61.5484V29.0323H66.9677V30.8387ZM62.4516 21.8065H66.0645C66.5629 21.8065 66.9677 22.2122 66.9677 22.7097V27.2258H61.5484V22.7097C61.5484 22.2122 61.9533 21.8065 62.4516 21.8065ZM21.8065 23.6129H59.7419V25.4194H21.8065V23.6129ZM35.6067 74.1935H32.6994L37.7999 59.7419H40.4236L35.6067 74.1935ZM53.6721 59.7419L55.1777 64.2581H40.8231L42.3288 59.7419H53.6721ZM39.6191 67.871L40.2216 66.0645H55.7802L56.3826 67.871H39.6191ZM63.2997 74.1935H60.3925L55.5747 59.7419H58.1983L63.2997 74.1935ZM72.3871 55.2258C72.3871 56.7196 71.1712 57.9355 69.6774 57.9355H26.3226C24.8288 57.9355 23.6129 56.7196 23.6129 55.2258V27.2258H59.7419V48.2404L64.2581 56.1436L68.7742 48.2404V27.2258H72.3871V55.2258ZM74.1935 25.4194H68.7742V23.6129H74.1935V25.4194Z" fill="#FAA900"/>
<path d="M49 40C49 33.9342 44.0658 29 38 29C31.9342 29 27 33.9342 27 40C27 46.0658 31.9342 51 38 51H38.9167V40.9167H49V40ZM37.0833 39.0833V49.121C32.4579 48.6595 28.8333 44.7445 28.8333 40C28.8333 34.9454 32.9454 30.8333 38 30.8333C42.7454 30.8333 46.6595 34.4579 47.121 39.0833H37.0833Z" fill="#FAA900"/>
<path d="M49.4911 52.0038C51.5687 49.9645 52.8696 47.1038 52.8696 43.9333V43H41V55.1333H41.913C44.1948 55.1333 46.3138 54.4156 48.0707 53.191L50.5549 57H62V55.1333H51.5321L49.4911 52.0038ZM42.8261 53.2202V44.8667H50.998C50.788 47.0182 49.8567 48.9527 48.4604 50.4238L46.3249 47.1485L44.8055 48.1839L47.0552 51.6342C45.8265 52.4947 44.3847 53.0611 42.8261 53.2202Z" fill="#FAA900"/>
<circle cx="47.5" cy="47.5" r="46.5" stroke="#FAA900" stroke-width="2"/>
</svg>
