<svg width="269" height="269" viewBox="0 0 269 269" fill="none" xmlns="http://www.w3.org/2000/svg">
<g opacity="0.2" filter="url(#filter0_f_8_16)">
<circle cx="134.5" cy="134.5" r="47.5" fill="#FAA900"/>
</g>
<path d="M161.194 108.806H155.608C155.234 107.758 154.24 107 153.065 107H149.452C148.276 107 147.282 107.758 146.908 108.806H108.806C107.81 108.806 107 109.617 107 110.613V112.419C107 113.416 107.81 114.226 108.806 114.226V142.226C108.806 144.716 110.833 146.742 113.323 146.742H122.884L117.889 160.893L117.839 161.039V163H123.909L126.017 156.677H143.983L146.091 163H152.161V161.039L147.116 146.742H156.677C159.167 146.742 161.194 144.716 161.194 142.226V114.226C162.19 114.226 163 113.416 163 112.419V110.613C163 109.617 162.19 108.806 161.194 108.806ZM148.548 134.097V119.645H150.355V134.097H148.548ZM153.315 135.903L151.258 139.502L149.202 135.903H153.315ZM153.968 134.097H152.161V119.645H153.968V134.097ZM153.968 117.839H148.548V116.032H153.968V117.839ZM149.452 108.806H153.065C153.563 108.806 153.968 109.212 153.968 109.71V114.226H148.548V109.71C148.548 109.212 148.953 108.806 149.452 108.806ZM108.806 110.613H146.742V112.419H108.806V110.613ZM122.607 161.194H119.699L124.8 146.742H127.424L122.607 161.194ZM140.672 146.742L142.178 151.258H127.823L129.329 146.742H140.672ZM126.619 154.871L127.222 153.065H142.78L143.383 154.871H126.619ZM150.3 161.194H147.392L142.575 146.742H145.198L150.3 161.194ZM159.387 142.226C159.387 143.72 158.171 144.935 156.677 144.935H113.323C111.829 144.935 110.613 143.72 110.613 142.226V114.226H146.742V135.24L151.258 143.144L155.774 135.24V114.226H159.387V142.226ZM161.194 112.419H155.774V110.613H161.194V112.419Z" fill="#FAA900"/>
<path d="M136 127C136 120.934 131.066 116 125 116C118.934 116 114 120.934 114 127C114 133.066 118.934 138 125 138H125.917V127.917H136V127ZM124.083 126.083V136.121C119.458 135.66 115.833 131.744 115.833 127C115.833 121.945 119.945 117.833 125 117.833C129.745 117.833 133.66 121.458 134.121 126.083H124.083Z" fill="#FAA900"/>
<path d="M136.491 139.004C138.569 136.964 139.87 134.104 139.87 130.933V130H128V142.133H128.913C131.195 142.133 133.314 141.416 135.071 140.191L137.555 144H149V142.133H138.532L136.491 139.004ZM129.826 140.22V131.867H137.998C137.788 134.018 136.857 135.953 135.46 137.424L133.325 134.149L131.806 135.184L134.055 138.634C132.826 139.495 131.385 140.061 129.826 140.22Z" fill="#FAA900"/>
<circle cx="134.5" cy="134.5" r="46.5" stroke="#FAA900" stroke-width="2"/>
<defs>
<filter id="filter0_f_8_16" x="0" y="0" width="269" height="269" filterUnits="userSpaceOnUse" color-interpolation-filters="sRGB">
<feFlood flood-opacity="0" result="BackgroundImageFix"/>
<feBlend mode="normal" in="SourceGraphic" in2="BackgroundImageFix" result="shape"/>
<feGaussianBlur stdDeviation="43.5" result="effect1_foregroundBlur_8_16"/>
</filter>
</defs>
</svg>
