<svg width="269" height="269" viewBox="0 0 269 269" fill="none" xmlns="http://www.w3.org/2000/svg">
<g opacity="0.2" filter="url(#filter0_f_44_382)">
<circle cx="134.5" cy="134.5" r="47.5" fill="#FAA900"/>
</g>
<path d="M161.197 122.232C133.089 111.235 135.19 111.875 134.609 112.085L108.762 122.232C107.946 122.56 107.247 123.125 106.755 123.854C106.263 124.582 106 125.441 106 126.32C106 127.199 106.263 128.058 106.755 128.787C107.247 129.515 107.946 130.08 108.762 130.409L116.024 133.408V142.005C116.024 158.34 154.035 158.33 154.035 142.005V133.618L156.036 132.828V146.134C155.168 146.346 154.396 146.842 153.844 147.543C153.291 148.244 152.988 149.11 152.985 150.003V157C152.985 157.265 153.09 157.52 153.278 157.707C153.466 157.895 153.72 158 153.985 158H159.987C160.252 158 160.507 157.895 160.694 157.707C160.882 157.52 160.987 157.265 160.987 157V150.003C160.987 149.117 160.692 148.256 160.148 147.556C159.605 146.856 158.845 146.355 157.986 146.134C157.986 145.834 157.986 147.603 157.986 132.049L161.197 130.789C162.03 130.426 162.739 129.827 163.237 129.067C163.735 128.307 164 127.419 164 126.51C164 125.602 163.735 124.713 163.237 123.953C162.739 123.193 162.03 122.595 161.197 122.232ZM158.987 150.003V156.001H154.986V150.003C154.986 149.472 155.196 148.964 155.572 148.589C155.947 148.214 156.456 148.003 156.986 148.003C157.517 148.003 158.026 148.214 158.401 148.589C158.776 148.964 158.987 149.472 158.987 150.003ZM151.985 141.905C151.985 155.701 117.974 155.711 117.974 141.905C124.506 150.373 145.473 150.343 151.985 141.905ZM151.985 134.408V136.007C151.985 149.673 117.974 149.673 117.974 136.007V134.178C135.98 141.505 134.819 141.176 135.35 140.936L151.985 134.408ZM160.467 128.93L157.466 130.119C157.266 130.029 157.706 130.119 135.2 126.03C134.934 125.983 134.661 126.042 134.44 126.196C134.218 126.35 134.067 126.585 134.019 126.85C133.971 127.115 134.031 127.389 134.185 127.61C134.339 127.831 134.574 127.982 134.839 128.03L153.985 131.479L134.98 138.926L109.472 128.56C109.026 128.38 108.644 128.071 108.375 127.673C108.107 127.275 107.963 126.806 107.963 126.325C107.963 125.845 108.107 125.376 108.375 124.978C108.644 124.58 109.026 124.271 109.472 124.091L134.98 114.084L160.457 124.081C160.921 124.294 161.315 124.635 161.591 125.064C161.867 125.493 162.014 125.992 162.015 126.502C162.016 127.012 161.871 127.512 161.597 127.942C161.322 128.373 160.93 128.715 160.467 128.93Z" fill="#FAA900"/>
<circle cx="134.5" cy="134.5" r="46.5" stroke="#FAA900" stroke-width="2"/>
<defs>
<filter id="filter0_f_44_382" x="0" y="0" width="269" height="269" filterUnits="userSpaceOnUse" color-interpolation-filters="sRGB">
<feFlood flood-opacity="0" result="BackgroundImageFix"/>
<feBlend mode="normal" in="SourceGraphic" in2="BackgroundImageFix" result="shape"/>
<feGaussianBlur stdDeviation="43.5" result="effect1_foregroundBlur_44_382"/>
</filter>
</defs>
</svg>
