<svg width="95" height="95" viewBox="0 0 95 95" fill="none" xmlns="http://www.w3.org/2000/svg">
<path d="M74.1974 35.2317C46.0889 24.2354 48.1896 24.8751 47.6094 25.0851L21.7616 35.2317C20.9459 35.5605 20.2471 36.1254 19.755 36.8539C19.2629 37.5825 19 38.4414 19 39.3204C19 40.1994 19.2629 41.0583 19.755 41.7869C20.2471 42.5154 20.9459 43.0803 21.7616 43.4091L29.0238 46.4081V55.0053C29.0238 71.3399 67.0353 71.3299 67.0353 55.0053V46.618L69.0359 45.8283V59.1339C68.1682 59.3459 67.3965 59.8419 66.8436 60.543C66.2907 61.2441 65.9884 62.11 65.985 63.0026V70.0003C65.985 70.2655 66.0903 70.5197 66.2779 70.7072C66.4655 70.8947 66.72 71 66.9853 71H72.9871C73.2524 71 73.5068 70.8947 73.6944 70.7072C73.882 70.5197 73.9874 70.2655 73.9874 70.0003V63.0026C73.9867 62.1166 73.6916 61.256 73.1485 60.5557C72.6053 59.8555 71.8449 59.3554 70.9865 59.1339C70.9865 58.834 70.9865 60.6034 70.9865 45.0485L74.1974 43.7889C75.0304 43.4256 75.7393 42.8272 76.2371 42.0672C76.7349 41.3073 77 40.4187 77 39.5103C77 38.602 76.7349 37.7134 76.2371 36.9534C75.7393 36.1935 75.0304 35.5951 74.1974 35.2317ZM71.9868 63.0026V69.0007H67.9856V63.0026C67.9856 62.4724 68.1963 61.9638 68.5715 61.5889C68.9467 61.2139 69.4556 61.0033 69.9862 61.0033C70.5168 61.0033 71.0256 61.2139 71.4008 61.5889C71.776 61.9638 71.9868 62.4724 71.9868 63.0026ZM64.9847 54.9053C64.9847 68.7008 30.9744 68.7108 30.9744 54.9053C37.5064 63.3725 58.4727 63.3425 64.9847 54.9053ZM64.9847 47.4077V49.0072C64.9847 62.6727 30.9744 62.6727 30.9744 49.0072V47.1778C48.9798 54.5054 47.8195 54.1755 48.3496 53.9356L64.9847 47.4077ZM73.4672 41.9295L70.4663 43.1192C70.2663 43.0292 70.7064 43.1192 48.1996 39.0305C47.9343 38.9828 47.6609 39.0423 47.4395 39.1961C47.2182 39.3498 47.067 39.5851 47.0192 39.8502C46.9715 40.1154 47.0311 40.3886 47.1849 40.6098C47.3387 40.831 47.5742 40.9821 47.8395 41.0298L66.9853 44.4787L47.9795 51.9263L22.4718 41.5597C22.0261 41.38 21.6443 41.0713 21.3755 40.6732C21.1066 40.275 20.9629 39.8057 20.9629 39.3254C20.9629 38.8451 21.1066 38.3758 21.3755 37.9777C21.6443 37.5795 22.0261 37.2708 22.4718 37.0911L47.9795 27.0844L73.4572 37.0811C73.9213 37.2937 74.3147 37.6346 74.5909 38.0637C74.867 38.4928 75.0144 38.992 75.0154 39.5021C75.0165 40.0123 74.8712 40.5121 74.5968 40.9423C74.3224 41.3725 73.9304 41.7151 73.4672 41.9295Z" fill="#FAA900"/>
<circle cx="47.5" cy="47.5" r="46.5" stroke="#FAA900" stroke-width="2"/>
</svg>
