<svg width="95" height="95" viewBox="0 0 95 95" fill="none" xmlns="http://www.w3.org/2000/svg">
<path d="M75.1795 74.3592H68.2429V67.9499C68.2429 67.4968 67.8757 67.1296 67.4226 67.1296C66.9695 67.1296 66.6023 67.4968 66.6023 67.9499V74.3592H44.803V57.9473C44.803 57.8178 44.9084 57.7125 45.0379 57.7125H66.3673C66.4969 57.7125 66.6021 57.8179 66.6021 57.9473V64.1216C66.6021 64.5747 66.9692 64.9419 67.4224 64.9419C67.8755 64.9419 68.2427 64.5747 68.2427 64.1216V57.9473C68.2427 56.913 67.4013 56.0718 66.3671 56.0718H56.5229V47.8898C56.5229 47.2868 56.2591 46.7173 55.7992 46.3277L50.5231 41.8549V37.4222C50.5231 36.1857 49.5172 35.1799 48.2808 35.1799H48.0616V31.4607C48.0616 30.4958 47.2766 29.7108 46.3117 29.7108H44.803V27.0938C44.803 26.1229 44.0132 25.333 43.0422 25.333H42.8664V20.8203C42.8664 20.3672 42.4992 20 42.0461 20C41.5931 20 41.2258 20.3672 41.2258 20.8203V25.333H40.886C40.0056 25.333 39.2892 26.0493 39.2892 26.9298V29.7108H37.6164C36.7421 29.7108 36.0306 30.4222 36.0306 31.2967V35.1799H35.6474C34.5013 35.1799 33.5691 36.1121 33.5691 37.2581V48.0974H27.4437C26.4787 48.0974 25.6936 48.8825 25.6936 49.8475V74.3593H20.8203C20.3673 74.3593 20 74.7264 20 75.1796C20 75.6327 20.3673 75.9999 20.8203 75.9999C23.0026 75.9999 72.7828 75.9999 75.1795 75.9999C75.6326 75.9999 75.9998 75.6327 75.9998 75.1796C75.9998 74.7264 75.6326 74.3592 75.1795 74.3592ZM50.523 44.0058L54.7384 47.5793C54.8297 47.6567 54.8821 47.7699 54.8821 47.8898V56.0717H50.523V44.0058ZM33.569 74.3592H27.3343C27.3343 48.5248 27.281 49.7379 27.4437 49.7379H33.569V74.3592ZM40.93 26.9737C43.1425 26.9737 43.1624 26.9314 43.1624 27.0938V29.7107H40.93V26.9737ZM37.6712 31.3515C46.8416 31.3515 46.4209 31.3047 46.4209 31.4606V35.1798H37.6712V31.3515ZM43.1623 57.9473V74.3592H35.2098C35.2098 73.1688 35.2098 37.7457 35.2098 37.258C35.2098 37.0167 35.406 36.8205 35.6473 36.8205C37.3142 36.8205 45.728 36.8205 47.2412 36.8205H48.2808C48.6124 36.8205 48.8824 37.0905 48.8824 37.4221V42.2349V56.0717H45.038C44.0039 56.0717 43.1623 56.9129 43.1623 57.9473Z" fill="#FAA900"/>
<path d="M46.1759 40H37.8241C37.369 40 37 40.4476 37 41C37 41.5524 37.369 42 37.8241 42H46.1759C46.631 42 47 41.5524 47 41C47 40.4476 46.631 40 46.1759 40Z" fill="#FAA900"/>
<path d="M46.1759 44H37.8241C37.369 44 37 44.4476 37 45C37 45.5524 37.369 46 37.8241 46H46.1759C46.631 46 47 45.5524 47 45C47 44.4476 46.631 44 46.1759 44Z" fill="#FAA900"/>
<path d="M46.1759 48H37.8241C37.369 48 37 48.4476 37 49C37 49.5524 37.369 50 37.8241 50H46.1759C46.631 50 47 49.5524 47 49C47 48.4476 46.631 48 46.1759 48Z" fill="#FAA900"/>
<path d="M31.157 52H28.843C28.3774 52 28 52.4476 28 53C28 53.5524 28.3774 54 28.843 54H31.157C31.6226 54 32 53.5524 32 53C32 52.4476 31.6226 52 31.157 52Z" fill="#FAA900"/>
<path d="M31.157 57H28.843C28.3774 57 28 57.4476 28 58C28 58.5524 28.3774 59 28.843 59H31.157C31.6226 59 32 58.5524 32 58C32 57.4476 31.6226 57 31.157 57Z" fill="#FAA900"/>
<path d="M31.2208 61H28.7792C28.3489 61 28 61.4476 28 62C28 62.5524 28.3489 63 28.7792 63H31.2208C31.6511 63 32 62.5524 32 62C32 61.4476 31.6511 61 31.2208 61Z" fill="#FAA900"/>
<path d="M31.2208 65H28.7792C28.3489 65 28 65.4476 28 66C28 66.5524 28.3489 67 28.7792 67H31.2208C31.6511 67 32 66.5524 32 66C32 65.4476 31.6511 65 31.2208 65Z" fill="#FAA900"/>
<path d="M31.2208 69H28.7792C28.3489 69 28 69.4476 28 70C28 70.5524 28.3489 71 28.7792 71H31.2208C31.6511 71 32 70.5524 32 70C32 69.4477 31.6511 69 31.2208 69Z" fill="#FAA900"/>
<path d="M46.1759 52H37.8241C37.369 52 37 52.4476 37 53C37 53.5524 37.369 54 37.8241 54H46.1759C46.631 54 47 53.5524 47 53C47 52.4476 46.631 52 46.1759 52Z" fill="#FAA900"/>
<path d="M40.1571 57H37.843C37.3774 57 37 57.4476 37 58C37 58.5524 37.3774 59 37.843 59H40.157C40.6226 59 41 58.5524 41 58C41 57.4476 40.6227 57 40.1571 57Z" fill="#FAA900"/>
<path d="M40.2209 61H37.7792C37.3489 61 37 61.4476 37 62C37 62.5524 37.3489 63 37.7792 63H40.2208C40.6511 63 41 62.5524 41 62C41 61.4476 40.6512 61 40.2209 61Z" fill="#FAA900"/>
<path d="M40.2209 65H37.7792C37.3489 65 37 65.4476 37 66C37 66.5524 37.3489 67 37.7792 67H40.2208C40.6511 67 41 66.5524 41 66C41 65.4476 40.6512 65 40.2209 65Z" fill="#FAA900"/>
<path d="M40.2209 69H37.7792C37.3489 69 37 69.4476 37 70C37 70.5524 37.3489 71 37.7792 71H40.2208C40.6511 71 41 70.5524 41 70C41.0001 69.4477 40.6512 69 40.2209 69Z" fill="#FAA900"/>
<path d="M63.1588 61H47.8412C47.3765 61 47 61.4476 47 62C47 62.5524 47.3765 63 47.8412 63H63.1588C63.6235 63 64 62.5524 64 62C64 61.4476 63.6236 61 63.1588 61Z" fill="#FAA900"/>
<path d="M63.1588 65H47.8412C47.3765 65 47 65.4476 47 66C47 66.5524 47.3765 67 47.8412 67H63.1588C63.6235 67 64 66.5524 64 66C64 65.4476 63.6236 65 63.1588 65Z" fill="#FAA900"/>
<path d="M63.1588 69H47.8412C47.3765 69 47 69.4476 47 70C47 70.5524 47.3765 71 47.8412 71H63.1588C63.6235 71 64 70.5524 64 70C64.0001 69.4477 63.6236 69 63.1588 69Z" fill="#FAA900"/>
<circle cx="47.5" cy="47.5" r="46.5" stroke="#FAA900" stroke-width="2"/>
</svg>
