<svg width="269" height="269" viewBox="0 0 269 269" fill="none" xmlns="http://www.w3.org/2000/svg">
<g opacity="0.2" filter="url(#filter0_f_44_415)">
<circle cx="134.5" cy="134.5" r="47.5" fill="#FAA900"/>
</g>
<path d="M162.179 161.359H155.243V154.95C155.243 154.497 154.876 154.13 154.423 154.13C153.969 154.13 153.602 154.497 153.602 154.95V161.359H131.803V144.947C131.803 144.818 131.908 144.713 132.038 144.713H153.367C153.497 144.713 153.602 144.818 153.602 144.947V151.122C153.602 151.575 153.969 151.942 154.422 151.942C154.876 151.942 155.243 151.575 155.243 151.122V144.947C155.243 143.913 154.401 143.072 153.367 143.072H143.523V134.89C143.523 134.287 143.259 133.717 142.799 133.328L137.523 128.855V124.422C137.523 123.186 136.517 122.18 135.281 122.18H135.062V118.461C135.062 117.496 134.277 116.711 133.312 116.711H131.803V114.094C131.803 113.123 131.013 112.333 130.042 112.333H129.866V107.82C129.866 107.367 129.499 107 129.046 107C128.593 107 128.226 107.367 128.226 107.82V112.333H127.886C127.006 112.333 126.289 113.049 126.289 113.93V116.711H124.616C123.742 116.711 123.031 117.422 123.031 118.297V122.18H122.647C121.501 122.18 120.569 123.112 120.569 124.258V135.097H114.444C113.479 135.097 112.694 135.882 112.694 136.848V161.359H107.82C107.367 161.359 107 161.726 107 162.18C107 162.633 107.367 163 107.82 163C110.003 163 159.783 163 162.179 163C162.633 163 163 162.633 163 162.18C163 161.726 162.633 161.359 162.179 161.359ZM137.523 131.006L141.738 134.579C141.83 134.657 141.882 134.77 141.882 134.89V143.072H137.523V131.006ZM120.569 161.359H114.334C114.334 135.525 114.281 136.738 114.444 136.738H120.569V161.359ZM127.93 113.974C130.142 113.974 130.162 113.931 130.162 114.094V116.711H127.93V113.974ZM124.671 118.351C133.842 118.351 133.421 118.305 133.421 118.461V122.18H124.671V118.351ZM130.162 144.947V161.359H122.21C122.21 160.169 122.21 124.746 122.21 124.258C122.21 124.017 122.406 123.821 122.647 123.821C124.314 123.821 132.728 123.821 134.241 123.821H135.281C135.612 123.821 135.882 124.09 135.882 124.422V129.235V143.072H132.038C131.004 143.072 130.162 143.913 130.162 144.947Z" fill="#FAA900"/>
<path d="M133.176 127H124.824C124.369 127 124 127.448 124 128C124 128.552 124.369 129 124.824 129H133.176C133.631 129 134 128.552 134 128C134 127.448 133.631 127 133.176 127Z" fill="#FAA900"/>
<path d="M133.176 131H124.824C124.369 131 124 131.448 124 132C124 132.552 124.369 133 124.824 133H133.176C133.631 133 134 132.552 134 132C134 131.448 133.631 131 133.176 131Z" fill="#FAA900"/>
<path d="M133.176 135H124.824C124.369 135 124 135.448 124 136C124 136.552 124.369 137 124.824 137H133.176C133.631 137 134 136.552 134 136C134 135.448 133.631 135 133.176 135Z" fill="#FAA900"/>
<path d="M118.157 139H115.843C115.377 139 115 139.448 115 140C115 140.552 115.377 141 115.843 141H118.157C118.623 141 119 140.552 119 140C119 139.448 118.623 139 118.157 139Z" fill="#FAA900"/>
<path d="M118.157 144H115.843C115.377 144 115 144.448 115 145C115 145.552 115.377 146 115.843 146H118.157C118.623 146 119 145.552 119 145C119 144.448 118.623 144 118.157 144Z" fill="#FAA900"/>
<path d="M118.221 148H115.779C115.349 148 115 148.448 115 149C115 149.552 115.349 150 115.779 150H118.221C118.651 150 119 149.552 119 149C119 148.448 118.651 148 118.221 148Z" fill="#FAA900"/>
<path d="M118.221 152H115.779C115.349 152 115 152.448 115 153C115 153.552 115.349 154 115.779 154H118.221C118.651 154 119 153.552 119 153C119 152.448 118.651 152 118.221 152Z" fill="#FAA900"/>
<path d="M118.221 156H115.779C115.349 156 115 156.448 115 157C115 157.552 115.349 158 115.779 158H118.221C118.651 158 119 157.552 119 157C119 156.448 118.651 156 118.221 156Z" fill="#FAA900"/>
<path d="M133.176 139H124.824C124.369 139 124 139.448 124 140C124 140.552 124.369 141 124.824 141H133.176C133.631 141 134 140.552 134 140C134 139.448 133.631 139 133.176 139Z" fill="#FAA900"/>
<path d="M127.157 144H124.843C124.377 144 124 144.448 124 145C124 145.552 124.377 146 124.843 146H127.157C127.623 146 128 145.552 128 145C128 144.448 127.623 144 127.157 144Z" fill="#FAA900"/>
<path d="M127.221 148H124.779C124.349 148 124 148.448 124 149C124 149.552 124.349 150 124.779 150H127.221C127.651 150 128 149.552 128 149C128 148.448 127.651 148 127.221 148Z" fill="#FAA900"/>
<path d="M127.221 152H124.779C124.349 152 124 152.448 124 153C124 153.552 124.349 154 124.779 154H127.221C127.651 154 128 153.552 128 153C128 152.448 127.651 152 127.221 152Z" fill="#FAA900"/>
<path d="M127.221 156H124.779C124.349 156 124 156.448 124 157C124 157.552 124.349 158 124.779 158H127.221C127.651 158 128 157.552 128 157C128 156.448 127.651 156 127.221 156Z" fill="#FAA900"/>
<path d="M150.159 148H134.841C134.377 148 134 148.448 134 149C134 149.552 134.377 150 134.841 150H150.159C150.623 150 151 149.552 151 149C151 148.448 150.624 148 150.159 148Z" fill="#FAA900"/>
<path d="M150.159 152H134.841C134.377 152 134 152.448 134 153C134 153.552 134.377 154 134.841 154H150.159C150.623 154 151 153.552 151 153C151 152.448 150.624 152 150.159 152Z" fill="#FAA900"/>
<path d="M150.159 156H134.841C134.377 156 134 156.448 134 157C134 157.552 134.377 158 134.841 158H150.159C150.623 158 151 157.552 151 157C151 156.448 150.624 156 150.159 156Z" fill="#FAA900"/>
<circle cx="134.5" cy="134.5" r="46.5" stroke="#FAA900" stroke-width="2"/>
<defs>
<filter id="filter0_f_44_415" x="0" y="0" width="269" height="269" filterUnits="userSpaceOnUse" color-interpolation-filters="sRGB">
<feFlood flood-opacity="0" result="BackgroundImageFix"/>
<feBlend mode="normal" in="SourceGraphic" in2="BackgroundImageFix" result="shape"/>
<feGaussianBlur stdDeviation="43.5" result="effect1_foregroundBlur_44_415"/>
</filter>
</defs>
</svg>
