<svg width="269" height="269" viewBox="0 0 269 269" fill="none" xmlns="http://www.w3.org/2000/svg">
<g opacity="0.2" filter="url(#filter0_f_44_450)">
<circle cx="134.5" cy="134.5" r="47.5" fill="#FAA900"/>
</g>
<g clip-path="url(#clip0_44_450)">
<path d="M107.875 141.652H135.219C135.451 141.652 135.674 141.56 135.838 141.396C136.002 141.232 136.094 141.009 136.094 140.777V134.142C136.105 133.097 135.781 132.074 135.17 131.226C134.559 130.377 133.692 129.746 132.697 129.424L125.815 127.13V125.061C126.661 124.376 127.331 123.499 127.771 122.503C128.293 122.48 128.8 122.313 129.234 122.021C129.668 121.729 130.014 121.323 130.233 120.848C130.452 120.372 130.535 119.846 130.475 119.326C130.415 118.806 130.213 118.313 129.891 117.901C129.996 117.407 130.155 116.59 130.226 116.105C130.249 115.95 130.272 115.804 130.293 115.667C130.493 114.379 130.625 113.528 129.817 112.006C128.953 110.381 127.632 109.044 126.017 108.16C124.403 107.276 122.565 106.883 120.73 107.031C118.895 107.178 117.143 107.86 115.691 108.991C114.238 110.122 113.148 111.653 112.555 113.395C112.54 113.441 112.528 113.488 112.52 113.536C112.288 114.95 112.475 116.423 113.074 117.919C112.757 118.332 112.559 118.825 112.502 119.343C112.445 119.861 112.53 120.384 112.75 120.857C112.97 121.329 113.314 121.733 113.747 122.023C114.18 122.313 114.684 122.48 115.204 122.504C115.666 123.546 116.379 124.458 117.28 125.157V127.13L110.397 129.424C109.402 129.746 108.535 130.377 107.924 131.226C107.313 132.074 106.989 133.097 107 134.142V140.777C107 141.009 107.092 141.232 107.257 141.396C107.421 141.56 107.643 141.652 107.875 141.652ZM122.821 133.646H120.274L120.05 132.369C120.044 132.332 120.034 132.295 120.023 132.258L121.547 131.176L123.064 132.254L122.821 133.646ZM120.462 135.396H122.632L123.42 139.902H119.674L120.462 135.396ZM134.344 134.142V139.902H131.389V137.047C131.389 136.815 131.297 136.593 131.133 136.428C130.969 136.264 130.746 136.172 130.514 136.172C130.282 136.172 130.06 136.264 129.895 136.428C129.731 136.593 129.639 136.815 129.639 137.047V139.902H125.197L124.35 135.06L124.644 133.376L126.396 134.62C126.527 134.713 126.681 134.768 126.841 134.779C127.001 134.791 127.162 134.758 127.304 134.684C127.447 134.61 127.567 134.499 127.65 134.362C127.734 134.224 127.778 134.067 127.778 133.906V129.63L132.144 131.084C132.789 131.293 133.35 131.702 133.746 132.252C134.142 132.802 134.351 133.465 134.344 134.142ZM126.028 129.046V132.211L123.058 130.103L125.02 128.71L126.028 129.046ZM119.03 126.142C120.654 126.762 122.453 126.745 124.065 126.093V127.242L121.547 129.03L119.03 127.242V126.142ZM128.31 120.528C128.38 119.942 128.374 119.349 128.292 118.764C128.431 118.865 128.544 118.997 128.622 119.149C128.7 119.302 128.742 119.47 128.744 119.642C128.746 119.813 128.707 119.982 128.632 120.136C128.556 120.29 128.446 120.424 128.31 120.528ZM114.236 113.889C114.73 112.48 115.624 111.246 116.809 110.337C117.994 109.428 119.417 108.884 120.906 108.772C122.395 108.659 123.884 108.983 125.192 109.703C126.5 110.423 127.57 111.508 128.271 112.827C128.806 113.835 128.75 114.197 128.563 115.399C128.542 115.541 128.518 115.69 128.495 115.85C128.456 116.114 128.384 116.506 128.312 116.879C128.128 116.835 127.94 116.809 127.75 116.802C126.954 114.229 126.038 112.888 124.88 112.595C124.347 112.461 123.523 112.493 122.616 113.41C122.566 113.46 122.522 113.517 122.485 113.579C121.236 115.691 119.086 116.658 115.915 116.535C115.793 116.53 115.671 116.552 115.557 116.598C115.444 116.644 115.341 116.713 115.256 116.801C115.022 116.807 114.789 116.843 114.564 116.906C114.21 115.942 114.097 114.907 114.236 113.889ZM114.234 119.653C114.234 119.489 114.271 119.327 114.341 119.18C114.412 119.032 114.514 118.901 114.641 118.798C114.574 119.368 114.576 119.944 114.649 120.514C114.519 120.411 114.415 120.28 114.343 120.131C114.271 119.981 114.234 119.818 114.234 119.653V119.653ZM116.512 118.295C119.938 118.275 122.432 117.025 123.93 114.573C124.148 114.368 124.34 114.264 124.451 114.292C124.534 114.313 125.282 114.585 126.179 117.655C126.189 117.686 126.199 117.717 126.212 117.747C126.648 118.789 126.728 119.947 126.438 121.039C126.148 122.13 125.506 123.096 124.61 123.785C123.715 124.474 122.617 124.847 121.487 124.847C120.357 124.847 119.259 124.474 118.364 123.785C117.552 123.151 116.944 122.293 116.615 121.317C116.286 120.341 116.25 119.29 116.512 118.295V118.295ZM118.074 128.71L120.036 130.104L117.067 132.212V129.046L118.074 128.71ZM108.75 134.142C108.743 133.465 108.952 132.802 109.348 132.252C109.744 131.702 110.306 131.293 110.951 131.084L115.317 129.63V133.906C115.317 134.067 115.361 134.224 115.444 134.361C115.528 134.498 115.647 134.61 115.79 134.684C115.933 134.757 116.093 134.79 116.253 134.779C116.413 134.768 116.567 134.713 116.698 134.62L118.45 133.376L118.745 135.06L117.898 139.901H113.455V137.047C113.455 136.815 113.363 136.592 113.199 136.428C113.035 136.264 112.812 136.172 112.58 136.172C112.348 136.172 112.126 136.264 111.961 136.428C111.797 136.592 111.705 136.815 111.705 137.047V139.901H108.75V134.142ZM125.663 153.961C125.737 153.819 125.771 153.66 125.761 153.5C125.751 153.341 125.697 153.187 125.605 153.056L119.26 143.956C119.179 143.84 119.072 143.746 118.947 143.681C118.822 143.615 118.683 143.581 118.542 143.581C118.401 143.581 118.262 143.615 118.137 143.681C118.012 143.746 117.905 143.84 117.824 143.956L111.479 153.056C111.388 153.187 111.334 153.341 111.324 153.5C111.313 153.66 111.347 153.819 111.421 153.961C111.495 154.103 111.607 154.222 111.743 154.305C111.88 154.388 112.037 154.431 112.197 154.431H115.626C116.403 156.511 117.669 158.372 119.318 159.859C120.966 161.345 122.949 162.413 125.097 162.971C125.303 163.026 125.523 163.003 125.713 162.906C125.904 162.81 126.053 162.648 126.132 162.449C126.211 162.251 126.215 162.031 126.143 161.83C126.071 161.629 125.928 161.461 125.74 161.358C124.452 160.656 123.343 159.666 122.5 158.464C121.658 157.262 121.105 155.882 120.884 154.431H124.887C125.047 154.431 125.204 154.388 125.341 154.305C125.478 154.222 125.589 154.103 125.663 153.961V153.961ZM119.914 152.681C119.795 152.681 119.677 152.706 119.568 152.753C119.458 152.8 119.36 152.869 119.278 152.956C119.196 153.042 119.133 153.144 119.092 153.256C119.051 153.368 119.034 153.487 119.04 153.606C119.136 155.346 119.632 157.041 120.49 158.558C118.909 157.131 117.733 155.313 117.079 153.286C117.022 153.111 116.911 152.957 116.761 152.849C116.612 152.74 116.432 152.681 116.247 152.681H113.873L118.542 145.986L123.21 152.681H119.914ZM144.337 116.039C144.263 116.181 144.23 116.341 144.24 116.5C144.25 116.66 144.304 116.813 144.395 116.945L150.741 126.045C150.821 126.16 150.929 126.255 151.054 126.32C151.179 126.385 151.318 126.419 151.459 126.419C151.6 126.419 151.738 126.385 151.863 126.32C151.988 126.255 152.096 126.16 152.176 126.045L158.522 116.945C158.613 116.813 158.667 116.66 158.677 116.5C158.687 116.34 158.654 116.181 158.58 116.039C158.506 115.898 158.394 115.779 158.258 115.696C158.121 115.613 157.964 115.569 157.804 115.569H154.375C153.597 113.49 152.331 111.628 150.683 110.142C149.034 108.655 147.052 107.587 144.904 107.029C144.697 106.974 144.478 106.998 144.287 107.094C144.097 107.19 143.948 107.352 143.869 107.551C143.79 107.749 143.786 107.969 143.858 108.17C143.93 108.371 144.073 108.539 144.26 108.642C145.549 109.344 146.658 110.335 147.5 111.536C148.342 112.738 148.896 114.118 149.116 115.569H145.113C144.953 115.569 144.796 115.613 144.659 115.695C144.523 115.778 144.411 115.897 144.337 116.039L144.337 116.039ZM150.087 117.319C150.206 117.319 150.324 117.295 150.433 117.248C150.543 117.201 150.641 117.132 150.723 117.045C150.805 116.958 150.868 116.856 150.909 116.744C150.95 116.632 150.967 116.513 150.96 116.394C150.865 114.654 150.369 112.96 149.511 111.443C151.091 112.87 152.268 114.688 152.922 116.714C152.979 116.89 153.09 117.043 153.24 117.152C153.389 117.261 153.569 117.319 153.754 117.319H156.128L151.459 124.015L146.79 117.319L150.087 117.319ZM152.362 142.999C153.991 142.128 155.282 140.737 156.03 139.049C156.778 137.36 156.94 135.469 156.491 133.678C156.042 131.886 155.007 130.295 153.551 129.159C152.095 128.023 150.3 127.406 148.453 127.406C146.606 127.406 144.812 128.023 143.356 129.159C141.899 130.295 140.864 131.886 140.415 133.678C139.966 135.469 140.129 137.36 140.877 139.049C141.625 140.737 142.916 142.128 144.545 142.999C141.531 143.665 138.835 145.338 136.901 147.742C134.967 150.147 133.911 153.139 133.907 156.224V162.125C133.907 162.357 133.999 162.58 134.163 162.744C134.327 162.908 134.549 163 134.782 163H162.125C162.357 163 162.58 162.908 162.744 162.744C162.908 162.58 163 162.357 163 162.125V156.224C162.996 153.139 161.94 150.146 160.006 147.742C158.072 145.337 155.375 143.664 152.362 142.999L152.362 142.999ZM147.515 144.435H149.391L150.714 153.966L148.453 156.662L146.193 153.966L147.515 144.435ZM141.917 135.695C141.917 134.402 142.3 133.138 143.018 132.063C143.736 130.988 144.757 130.15 145.951 129.655C147.146 129.161 148.46 129.031 149.728 129.283C150.996 129.535 152.161 130.158 153.075 131.072C153.989 131.986 154.612 133.151 154.864 134.419C155.117 135.687 154.987 137.001 154.492 138.196C153.998 139.39 153.16 140.411 152.085 141.129C151.01 141.848 149.746 142.231 148.453 142.231C146.72 142.229 145.059 141.54 143.833 140.314C142.608 139.089 141.919 137.428 141.917 135.695L141.917 135.695ZM161.25 161.25H157.316V154.857C157.316 154.625 157.223 154.403 157.059 154.239C156.895 154.074 156.673 153.982 156.441 153.982C156.209 153.982 155.986 154.074 155.822 154.239C155.658 154.403 155.566 154.625 155.566 154.857V161.25H141.341V154.857C141.341 154.625 141.249 154.403 141.085 154.239C140.921 154.074 140.698 153.982 140.466 153.982C140.234 153.982 140.012 154.074 139.847 154.239C139.683 154.403 139.591 154.625 139.591 154.857V161.25H135.657V156.224C135.66 153.396 136.679 150.662 138.528 148.522C140.377 146.381 142.933 144.975 145.731 144.56L144.407 154.11C144.39 154.231 144.399 154.355 144.432 154.472C144.466 154.59 144.524 154.699 144.603 154.793L147.783 158.586C147.865 158.684 147.968 158.762 148.083 158.816C148.199 158.87 148.326 158.898 148.453 158.898C148.581 158.898 148.707 158.87 148.823 158.816C148.939 158.762 149.042 158.684 149.124 158.586L152.304 154.793C152.383 154.699 152.441 154.59 152.474 154.472C152.508 154.355 152.517 154.231 152.5 154.11L151.175 144.56C153.973 144.975 156.53 146.381 158.379 148.522C160.228 150.662 161.247 153.396 161.25 156.224V161.25Z" fill="#FAA900"/>
</g>
<circle cx="134.5" cy="134.5" r="46.5" stroke="#FAA900" stroke-width="2"/>
<defs>
<filter id="filter0_f_44_450" x="0" y="0" width="269" height="269" filterUnits="userSpaceOnUse" color-interpolation-filters="sRGB">
<feFlood flood-opacity="0" result="BackgroundImageFix"/>
<feBlend mode="normal" in="SourceGraphic" in2="BackgroundImageFix" result="shape"/>
<feGaussianBlur stdDeviation="43.5" result="effect1_foregroundBlur_44_450"/>
</filter>
<clipPath id="clip0_44_450">
<rect width="56" height="56" fill="white" transform="translate(107 107)"/>
</clipPath>
</defs>
</svg>
