<svg width="95" height="95" viewBox="0 0 95 95" fill="none" xmlns="http://www.w3.org/2000/svg">
<g clip-path="url(#clip0_264_79)">
<path d="M20.8753 54.6519H48.219C48.4511 54.6519 48.6737 54.5597 48.8377 54.3956C49.0018 54.2315 49.094 54.009 49.094 53.7769V47.1424C49.105 46.0965 48.7813 45.0745 48.1701 44.2257C47.559 43.3768 46.6924 42.7457 45.6969 42.4244L38.8146 40.1301V38.0612C39.6606 37.376 40.3311 36.4991 40.7706 35.5031C41.2934 35.4796 41.7996 35.3128 42.2339 35.0208C42.6681 34.7288 43.0137 34.323 43.2326 33.8477C43.4515 33.3724 43.5354 32.846 43.4751 32.3262C43.4148 31.8064 43.2126 31.3132 42.8906 30.9007C42.9956 30.4073 43.1547 29.5899 43.2264 29.1049C43.2491 28.9499 43.2717 28.8045 43.293 28.6674C43.4928 27.3791 43.6248 26.5281 42.8166 25.0063C41.9525 23.3809 40.6318 22.0437 39.0172 21.1597C37.4025 20.2756 35.5645 19.8832 33.7296 20.0308C31.8947 20.1785 30.1431 20.8598 28.6906 21.9907C27.2381 23.1216 26.1482 24.6527 25.5552 26.3954C25.5397 26.4412 25.5279 26.4881 25.5201 26.5358C25.2884 27.9501 25.4751 29.4233 26.074 30.9191C25.7567 31.3325 25.5588 31.8248 25.5016 32.3428C25.4445 32.8607 25.5304 33.3843 25.75 33.8569C25.9695 34.3294 26.3144 34.7327 26.747 35.0231C27.1797 35.3134 27.6837 35.4796 28.2042 35.5037C28.666 36.5462 29.3791 37.4579 30.2797 38.1573V40.1301L23.3974 42.4244C22.4019 42.7457 21.5353 43.3768 20.9241 44.2256C20.313 45.0745 19.9892 46.0965 20.0003 47.1424V53.7769C20.0003 54.009 20.0925 54.2315 20.2566 54.3956C20.4206 54.5597 20.6432 54.6519 20.8753 54.6519ZM35.8206 46.6456H33.2737L33.0505 45.3694C33.0436 45.3319 33.0343 45.2948 33.0227 45.2584L34.5471 44.1762L36.0642 45.2535L35.8206 46.6456ZM33.4625 48.3956H35.6318L36.4201 52.9019H32.6743L33.4625 48.3956ZM47.344 47.1424V52.9019H44.3891V50.0472C44.3891 49.8151 44.297 49.5926 44.1329 49.4285C43.9688 49.2644 43.7462 49.1722 43.5141 49.1722C43.2821 49.1722 43.0595 49.2644 42.8954 49.4285C42.7313 49.5926 42.6391 49.8151 42.6391 50.0472V52.9019H38.1966L37.3497 48.0604L37.6443 46.376L39.3961 47.6201C39.527 47.7131 39.681 47.7682 39.8412 47.7795C40.0015 47.7908 40.1617 47.7577 40.3044 47.684C40.447 47.6103 40.5667 47.4987 40.6502 47.3615C40.7337 47.2243 40.7778 47.0668 40.7777 46.9062V42.6296L45.1435 44.0843C45.7885 44.2926 46.35 44.7018 46.7459 45.252C47.1418 45.8022 47.3514 46.4646 47.344 47.1424ZM39.0277 42.0455V45.2114L36.0584 43.1029L38.0201 41.7097L39.0277 42.0455ZM32.0297 39.1416C33.6539 39.762 35.4526 39.7447 37.0646 39.0933V40.2417L34.5471 42.0299L32.0297 40.2422V39.1416ZM41.3097 33.528C41.3798 32.9417 41.3738 32.3488 41.2921 31.764C41.4306 31.8649 41.5435 31.9969 41.622 32.1492C41.7004 32.3016 41.7421 32.4702 41.7438 32.6415C41.7455 32.8129 41.7072 32.9823 41.6318 33.1362C41.5564 33.2901 41.4461 33.4243 41.3097 33.528ZM27.2356 26.889C27.7301 25.4802 28.6244 24.246 29.809 23.3372C30.9936 22.4284 32.4173 21.8845 33.9061 21.7718C35.3949 21.6591 36.8843 21.9826 38.1922 22.7027C39.5001 23.4228 40.5699 24.5083 41.2709 25.8266C41.806 26.8345 41.7499 27.1971 41.5634 28.3987C41.5416 28.5409 41.5183 28.6902 41.4948 28.8498C41.4558 29.1141 41.3844 29.506 41.3119 29.8794C41.1278 29.8349 40.9397 29.8088 40.7504 29.8016C39.9541 27.2285 39.0382 25.8882 37.8804 25.5954C37.3475 25.4606 36.5228 25.4927 35.6163 26.4095C35.5658 26.4605 35.5217 26.5174 35.485 26.5791C34.2355 28.6906 32.0862 29.6577 28.9153 29.5346C28.7928 29.5303 28.6708 29.5518 28.5572 29.5977C28.4436 29.6436 28.3409 29.7128 28.2557 29.8009C28.0215 29.8074 27.7891 29.8429 27.5637 29.9064C27.2097 28.9425 27.0971 27.9065 27.2356 26.889ZM27.2342 32.6531C27.2342 32.4892 27.2708 32.3275 27.3412 32.1796C27.4116 32.0316 27.5141 31.9013 27.6412 31.798C27.5738 32.3681 27.5764 32.9444 27.6489 33.514C27.5195 33.4107 27.415 33.2797 27.3433 33.1306C27.2715 32.9814 27.2342 32.818 27.2342 32.6525V32.6531ZM29.5123 31.2951C32.9384 31.2755 35.4319 30.025 36.9301 27.5726C37.148 27.3682 37.3399 27.2643 37.4512 27.2925C37.5336 27.3134 38.2824 27.5849 39.1793 30.655C39.1885 30.6864 39.1995 30.7172 39.2121 30.7473C39.6483 31.7895 39.7277 32.9466 39.4379 34.0385C39.1482 35.1305 38.5056 36.096 37.6102 36.7848C36.7148 37.4737 35.6167 37.8471 34.487 37.8471C33.3573 37.8471 32.2592 37.4737 31.3638 36.7848C30.5519 36.1511 29.9438 35.2932 29.6147 34.3173C29.2856 33.3414 29.25 32.2904 29.5123 31.2945V31.2951ZM31.0742 41.7104L33.036 43.1036L30.0666 45.2116V42.0458L31.0742 41.7104ZM21.7503 47.1424C21.7428 46.4646 21.9524 45.8022 22.3483 45.252C22.7442 44.7018 23.3057 44.2926 23.9507 44.0843L28.3166 42.6296V46.9062C28.3166 47.0667 28.3608 47.2242 28.4443 47.3614C28.5278 47.4985 28.6475 47.61 28.7901 47.6837C28.9328 47.7573 29.093 47.7903 29.2532 47.779C29.4133 47.7677 29.5673 47.7126 29.6982 47.6196L31.45 46.3756L31.7446 48.06L30.8979 52.9015H26.4551V50.0468C26.4551 49.8147 26.363 49.5921 26.1989 49.428C26.0348 49.264 25.8122 49.1718 25.5801 49.1718C25.3481 49.1718 25.1255 49.264 24.9614 49.428C24.7973 49.5921 24.7051 49.8147 24.7051 50.0468V52.9015H21.7503V47.1424ZM38.6635 66.9612C38.7375 66.8194 38.7712 66.66 38.7609 66.5004C38.7507 66.3408 38.6969 66.1871 38.6054 66.0559L32.26 56.9559C32.1794 56.8402 32.072 56.7458 31.9471 56.6806C31.8221 56.6154 31.6832 56.5813 31.5422 56.5813C31.4013 56.5813 31.2624 56.6154 31.1374 56.6806C31.0124 56.7458 30.9051 56.8402 30.8245 56.9559L24.4791 66.0559C24.3876 66.1871 24.3338 66.3408 24.3236 66.5004C24.3134 66.66 24.3471 66.8194 24.4211 66.9612C24.4951 67.103 24.6065 67.2218 24.7433 67.3047C24.8801 67.3876 25.037 67.4314 25.1969 67.4314H28.626C29.4031 69.5106 30.6694 71.3722 32.3179 72.8587C33.9664 74.3452 35.9486 75.4129 38.0969 75.9715C38.3034 76.0257 38.5226 76.0025 38.7132 75.9064C38.9038 75.8102 39.0527 75.6477 39.1318 75.4494C39.2109 75.2511 39.2148 75.0307 39.1427 74.8298C39.0706 74.6288 38.9276 74.4611 38.7405 74.3583C37.4518 73.6562 36.3429 72.6657 35.5005 71.464C34.658 70.2624 34.1049 68.8822 33.8842 67.4314H37.8874C38.0474 67.4314 38.2043 67.3876 38.3412 67.3047C38.478 67.2217 38.5895 67.1028 38.6635 66.961V66.9612ZM32.914 65.6815C32.7949 65.6815 32.677 65.7058 32.5677 65.7529C32.4583 65.8001 32.3597 65.869 32.2779 65.9556C32.1962 66.0421 32.1329 66.1445 32.0921 66.2564C32.0512 66.3682 32.0336 66.4872 32.0404 66.6061C32.1362 68.3462 32.6322 70.0407 33.4899 71.5577C31.9094 70.1309 30.7329 68.3127 30.079 66.2864C30.0219 66.1106 29.9107 65.9574 29.7612 65.8487C29.6116 65.74 29.4316 65.6815 29.2467 65.6815H26.8733L31.5417 58.9859L36.2104 65.6815H32.914ZM57.3374 29.0394C57.2634 29.1812 57.2298 29.3406 57.24 29.5001C57.2502 29.6597 57.304 29.8134 57.3955 29.9446L63.7409 39.0446C63.8215 39.1603 63.9289 39.2547 64.0538 39.3199C64.1788 39.3851 64.3177 39.4192 64.4586 39.4192C64.5996 39.4192 64.7385 39.3851 64.8635 39.3199C64.9884 39.2547 65.0958 39.1603 65.1764 39.0446L71.5218 29.9446C71.6133 29.8134 71.667 29.6597 71.6772 29.5001C71.6874 29.3405 71.6537 29.1812 71.5797 29.0394C71.5057 28.8976 71.3943 28.7788 71.2575 28.6959C71.1208 28.613 70.9639 28.5692 70.804 28.5692H67.3745C66.5974 26.4899 65.3311 24.6283 63.6826 23.1417C62.0341 21.6552 60.0519 20.5874 57.9036 20.0287C57.6971 19.9745 57.478 19.9976 57.2873 20.0938C57.0967 20.1899 56.9479 20.3525 56.8688 20.5508C56.7896 20.7491 56.7858 20.9694 56.8578 21.1704C56.9299 21.3714 57.073 21.539 57.2601 21.6418C58.5487 22.344 59.6576 23.3345 60.5 24.5362C61.3425 25.7378 61.8956 27.118 62.1163 28.5688H58.1132C57.9532 28.5687 57.7963 28.6125 57.6594 28.6954C57.5226 28.7783 57.4111 28.8972 57.3371 29.039L57.3374 29.0394ZM63.0869 30.3191C63.206 30.3191 63.3238 30.2948 63.4332 30.2477C63.5426 30.2005 63.6412 30.1316 63.7229 30.045C63.8047 29.9585 63.868 29.8561 63.9088 29.7442C63.9497 29.6324 63.9673 29.5134 63.9605 29.3945C63.8647 27.6545 63.3686 25.96 62.5109 24.4431C64.0914 25.8698 65.2679 27.6879 65.9219 29.7142C65.979 29.89 66.0902 30.0432 66.2397 30.1519C66.3892 30.2606 66.5693 30.3191 66.7542 30.3191H69.1276L64.4591 37.0147L59.7897 30.3188L63.0869 30.3191ZM65.3619 55.9993C66.9907 55.128 68.2817 53.7375 69.0298 52.0486C69.778 50.3597 69.9404 48.4693 69.4913 46.6775C69.0421 44.8858 68.0072 43.2955 66.5509 42.1591C65.0946 41.0228 63.3004 40.4056 61.4532 40.4056C59.6061 40.4056 57.8118 41.0228 56.3555 42.1591C54.8992 43.2955 53.8643 44.8858 53.4152 46.6775C52.9661 48.4693 53.1285 50.3597 53.8767 52.0486C54.6248 53.7375 55.9158 55.128 57.5446 55.9993C54.5314 56.6647 51.8352 58.3377 49.9011 60.7421C47.967 63.1466 46.9107 66.1387 46.9065 69.2245V75.1249C46.9065 75.357 46.9987 75.5796 47.1628 75.7436C47.3269 75.9077 47.5495 75.9999 47.7815 75.9999H75.1253C75.3573 75.9999 75.5799 75.9077 75.744 75.7436C75.9081 75.5796 76.0003 75.357 76.0003 75.1249V69.2245C75.9962 66.1386 74.9399 63.1464 73.0057 60.7419C71.0716 58.3374 68.3753 56.6643 65.362 55.999L65.3619 55.9993ZM60.5154 57.4353H62.3912L63.7135 66.9655L61.4534 69.6615L59.1933 66.9655L60.5154 57.4353ZM54.9166 48.6949C54.9165 47.402 55.2998 46.1382 56.018 45.0632C56.7362 43.9882 57.7571 43.1503 58.9515 42.6555C60.1459 42.1607 61.4602 42.0311 62.7282 42.2833C63.9962 42.5355 65.161 43.158 66.0752 44.0721C66.9895 44.9863 67.6121 46.151 67.8643 47.419C68.1166 48.687 67.9872 50.0013 67.4925 51.1958C66.9978 52.3902 66.16 53.4111 65.085 54.1294C64.0101 54.8477 62.7463 55.2311 61.4534 55.2311C59.7204 55.2292 58.0589 54.5399 56.8335 53.3144C55.608 52.089 54.9187 50.4276 54.9167 48.6946L54.9166 48.6949ZM74.2503 74.2499H70.3156V67.8573C70.3156 67.6252 70.2234 67.4027 70.0593 67.2386C69.8952 67.0745 69.6727 66.9823 69.4406 66.9823C69.2086 66.9823 68.986 67.0745 68.8219 67.2386C68.6578 67.4027 68.5656 67.6252 68.5656 67.8573V74.2499H54.3412V67.8573C54.3412 67.6252 54.249 67.4027 54.0849 67.2386C53.9208 67.0745 53.6982 66.9823 53.4662 66.9823C53.2341 66.9823 53.0116 67.0745 52.8475 67.2386C52.6834 67.4027 52.5912 67.6252 52.5912 67.8573V74.2499H48.6565V69.2245C48.6602 66.3958 49.6792 63.6623 51.5282 61.5216C53.3773 59.3809 55.9334 57.9751 58.7315 57.5601L57.4065 67.1104C57.3897 67.2315 57.3985 67.3548 57.4323 67.4724C57.4661 67.5899 57.5242 67.699 57.6027 67.7928L60.7829 71.5857C60.8651 71.6836 60.9676 71.7624 61.0835 71.8164C61.1993 71.8704 61.3256 71.8984 61.4534 71.8984C61.5812 71.8984 61.7075 71.8704 61.8233 71.8164C61.9392 71.7624 62.0417 71.6836 62.1239 71.5857L65.3041 67.7928C65.3826 67.699 65.4407 67.5899 65.4745 67.4724C65.5083 67.3548 65.5171 67.2315 65.5003 67.1104L64.1753 57.5601C66.9734 57.9751 69.5295 59.3809 71.3786 61.5216C73.2276 63.6623 74.2466 66.3958 74.2503 69.2245V74.2499Z" fill="#FAA900"/>
</g>
<circle cx="47.5" cy="47.5" r="46.5" stroke="#FAA900" stroke-width="2"/>
<defs>
<clipPath id="clip0_264_79">
<rect width="56" height="56" fill="white" transform="translate(20 20)"/>
</clipPath>
</defs>
</svg>
