<svg width="269" height="269" viewBox="0 0 269 269" fill="none" xmlns="http://www.w3.org/2000/svg">
<g opacity="0.2" filter="url(#filter0_f_44_481)">
<circle cx="134.5" cy="134.5" r="47.5" fill="#FAA900"/>
</g>
<g clip-path="url(#clip0_44_481)">
<path d="M157.4 118.13V114.467C157.4 112.405 155.729 110.733 153.667 110.733H147.418C146.343 108.454 144.049 107 141.529 107C139.009 107 136.715 108.454 135.639 110.733H129.685C128.609 108.454 126.315 107 123.795 107C121.275 107 118.981 108.454 117.906 110.733H110.733C108.671 110.733 107 112.405 107 114.467V159.267C107 161.329 108.671 163 110.733 163H153.667C155.364 162.994 156.843 161.843 157.267 160.2H160.1C160.939 160.202 161.738 159.839 162.289 159.206C162.84 158.573 163.089 157.732 162.971 156.902L157.4 118.13ZM141.533 108.867C143.002 108.868 144.385 109.559 145.267 110.733H137.824C138.698 109.562 140.072 108.871 141.533 108.867ZM141.533 120.067C142.049 120.067 142.467 119.649 142.467 119.133C142.467 118.618 142.049 118.2 141.533 118.2C140.072 118.196 138.698 117.504 137.824 116.333H150.867C151.382 116.333 151.8 116.751 151.8 117.267V121.933H112.6V117.267C112.6 116.751 113.018 116.333 113.533 116.333H117.906C118.986 118.61 121.28 120.063 123.8 120.067C124.315 120.067 124.733 119.649 124.733 119.133C124.733 118.618 124.315 118.2 123.8 118.2C122.339 118.196 120.965 117.504 120.091 116.333H135.639C136.719 118.61 139.013 120.063 141.533 120.067ZM151.8 150.867H148.067C146.52 150.867 145.267 152.12 145.267 153.667V157.4H113.533C113.018 157.4 112.6 156.982 112.6 156.467V123.8H151.8V150.867ZM150.48 152.733L147.133 156.08V153.667C147.133 153.151 147.551 152.733 148.067 152.733H150.48ZM119.227 114.467C119.101 113.851 119.101 113.216 119.227 112.6H135.075C135.028 112.909 135.003 113.221 135 113.533C135.003 113.846 135.028 114.158 135.075 114.467H119.227ZM123.8 108.867C125.269 108.868 126.651 109.559 127.533 110.733H120.091C120.965 109.562 122.339 108.871 123.8 108.867ZM155.533 159.267C155.533 160.298 154.698 161.133 153.667 161.133H110.733C109.702 161.133 108.867 160.298 108.867 159.267V114.467C108.867 113.436 109.702 112.6 110.733 112.6H117.341C117.294 112.909 117.269 113.221 117.267 113.533C117.269 113.846 117.294 114.158 117.341 114.467H113.533C111.987 114.467 110.733 115.72 110.733 117.267V156.467C110.733 158.013 111.987 159.267 113.533 159.267H145.427C146.17 159.269 146.883 158.973 147.407 158.446L152.846 153.007C153.373 152.483 153.669 151.77 153.667 151.027V117.267C153.667 115.72 152.413 114.467 150.867 114.467H136.96C136.834 113.851 136.834 113.216 136.96 112.6H153.667C154.698 112.6 155.533 113.436 155.533 114.467V159.267ZM160.884 157.976C160.688 158.205 160.401 158.336 160.1 158.333L157.4 158.333V131.261L161.122 157.168C161.166 157.459 161.079 157.755 160.884 157.976Z" fill="#FAA900"/>
<path d="M124.5 148C127.536 147.997 129.997 145.447 130 142.3V134.7C130 131.552 127.538 129 124.5 129C121.462 129 119 131.552 119 134.7V142.3C119.003 145.447 121.464 147.997 124.5 148ZM120.833 134.7C120.833 132.601 122.475 130.9 124.5 130.9C126.525 130.9 128.167 132.601 128.167 134.7V142.3C128.167 144.399 126.525 146.1 124.5 146.1C122.475 146.1 120.833 144.399 120.833 142.3V134.7Z" fill="#FAA900"/>
<path d="M134.9 146.1C134.403 146.1 134 146.525 134 147.05C134 147.575 134.403 148 134.9 148H142.1C142.597 148 143 147.575 143 147.05C143 146.525 142.597 146.1 142.1 146.1H139.4V129.95C139.4 129.566 139.181 129.219 138.844 129.072C138.508 128.925 138.121 129.007 137.864 129.278L134.264 133.078C133.923 133.451 133.928 134.044 134.275 134.41C134.622 134.776 135.183 134.782 135.536 134.422L137.6 132.243V146.1H134.9Z" fill="#FAA900"/>
<path d="M142.08 151H120.92C120.412 151 120 151.448 120 152C120 152.552 120.412 153 120.92 153H142.08C142.588 153 143 152.552 143 152C143 151.448 142.588 151 142.08 151Z" fill="#FAA900"/>
</g>
<circle cx="134.5" cy="134.5" r="46.5" stroke="#FAA900" stroke-width="2"/>
<defs>
<filter id="filter0_f_44_481" x="0" y="0" width="269" height="269" filterUnits="userSpaceOnUse" color-interpolation-filters="sRGB">
<feFlood flood-opacity="0" result="BackgroundImageFix"/>
<feBlend mode="normal" in="SourceGraphic" in2="BackgroundImageFix" result="shape"/>
<feGaussianBlur stdDeviation="43.5" result="effect1_foregroundBlur_44_481"/>
</filter>
<clipPath id="clip0_44_481">
<rect width="56" height="56" fill="white" transform="translate(107 107)"/>
</clipPath>
</defs>
</svg>
