<svg width="95" height="95" viewBox="0 0 95 95" fill="none" xmlns="http://www.w3.org/2000/svg">
<g clip-path="url(#clip0_264_80)">
<path d="M70.4 31.13V27.4667C70.4 25.4048 68.7285 23.7334 66.6667 23.7334H60.418C59.3427 21.4541 57.0488 20 54.5287 20C52.0085 20 49.7146 21.4541 48.6393 23.7334H42.6847C41.6094 21.4541 39.3155 20 36.7953 20C34.2752 20 31.9813 21.4541 30.906 23.7334H23.7333C21.6715 23.7334 20 25.4048 20 27.4667V72.2667C20 74.3286 21.6715 76 23.7333 76H66.6667C68.3638 75.9937 69.8432 74.8433 70.2675 73.2H73.1001C73.9392 73.2018 74.7377 72.8392 75.2886 72.2063C75.8395 71.5734 76.0885 70.7325 75.9711 69.9016L70.4 31.13ZM54.5333 21.8667C56.002 21.8676 57.3848 22.559 58.2667 23.7334H50.8243C51.6982 22.5624 53.0722 21.8709 54.5333 21.8667ZM54.5333 33.0667C55.0488 33.0667 55.4667 32.6488 55.4667 32.1334C55.4667 31.6179 55.0488 31.2 54.5333 31.2C53.0722 31.1958 51.6982 30.5043 50.8243 29.3334H63.8667C64.3821 29.3334 64.8 29.7512 64.8 30.2667V34.9334H25.6V30.2667C25.6 29.7512 26.0179 29.3334 26.5333 29.3334H30.906C31.9861 31.6105 34.2797 33.0632 36.8 33.0667C37.3155 33.0667 37.7333 32.6488 37.7333 32.1334C37.7333 31.6179 37.3155 31.2 36.8 31.2C35.3389 31.1958 33.9649 30.5043 33.0909 29.3334H48.6393C49.7195 31.6105 52.013 33.0632 54.5333 33.0667ZM64.8 63.8667H61.0667C59.5203 63.8667 58.2667 65.1203 58.2667 66.6667V70.4H26.5333C26.0179 70.4 25.6 69.9822 25.6 69.4667V36.8H64.8V63.8667ZM63.4803 65.7334L60.1333 69.0803V66.6667C60.1333 66.1512 60.5512 65.7334 61.0667 65.7334H63.4803ZM32.2267 27.4667C32.101 26.8508 32.101 26.2159 32.2267 25.6H48.0747C48.0276 25.909 48.0026 26.2209 48 26.5334C48.0026 26.8458 48.0276 27.1578 48.0747 27.4667H32.2267ZM36.8 21.8667C38.2687 21.8676 39.6514 22.559 40.5333 23.7334H33.0909C33.9649 22.5624 35.3389 21.8709 36.8 21.8667ZM68.5333 72.2667C68.5333 73.2976 67.6976 74.1334 66.6667 74.1334H23.7333C22.7024 74.1334 21.8667 73.2976 21.8667 72.2667V27.4667C21.8667 26.4358 22.7024 25.6 23.7333 25.6H30.3413C30.2942 25.909 30.2693 26.2209 30.2667 26.5334C30.2693 26.8458 30.2942 27.1578 30.3413 27.4667H26.5333C24.9869 27.4667 23.7333 28.7203 23.7333 30.2667V69.4667C23.7333 71.0131 24.9869 72.2667 26.5333 72.2667H58.4272C59.1702 72.2688 59.8831 71.9734 60.4068 71.4463L65.8463 66.0068C66.3733 65.4831 66.6688 64.7702 66.6667 64.0272V30.2667C66.6667 28.7203 65.4131 27.4667 63.8667 27.4667H49.96C49.8343 26.8508 49.8343 26.2159 49.96 25.6H66.6667C67.6976 25.6 68.5333 26.4358 68.5333 27.4667V72.2667ZM73.8841 70.9759C73.6883 71.2049 73.4014 71.3357 73.1001 71.3334L70.4 71.3334V44.2611L74.1221 70.1676C74.166 70.459 74.0789 70.7548 73.8841 70.9759Z" fill="#FAA900"/>
<path d="M37.5 61C40.5363 60.9969 42.997 58.4467 43 55.3V47.7C43 44.552 40.5376 42 37.5 42C34.4624 42 32 44.552 32 47.7V55.3C32.003 58.4467 34.4637 60.9969 37.5 61ZM33.8333 47.7C33.8333 45.6013 35.475 43.9 37.5 43.9C39.525 43.9 41.1667 45.6013 41.1667 47.7V55.3C41.1667 57.3987 39.525 59.1 37.5 59.1C35.475 59.1 33.8333 57.3987 33.8333 55.3V47.7Z" fill="#FAA900"/>
<path d="M47.9 59.1C47.4029 59.1 47 59.5253 47 60.05C47 60.5747 47.4029 61 47.9 61H55.1C55.5971 61 56 60.5747 56 60.05C56 59.5253 55.5971 59.1 55.1 59.1H52.4V42.9498C52.3999 42.5657 52.1806 42.2193 51.8444 42.0723C51.5081 41.9253 51.1211 42.0066 50.8637 42.2782L47.2637 46.0782C46.9226 46.451 46.9275 47.0435 47.2747 47.41C47.6218 47.7764 48.1832 47.7816 48.5363 47.4215L50.6 45.2432V59.1H47.9Z" fill="#FAA900"/>
<path d="M55.08 64H33.92C33.4119 64 33 64.4477 33 65C33 65.5523 33.4119 66 33.92 66H55.08C55.5881 66 56 65.5523 56 65C56 64.4477 55.5881 64 55.08 64Z" fill="#FAA900"/>
</g>
<circle cx="47.5" cy="47.5" r="46.5" stroke="#FAA900" stroke-width="2"/>
<defs>
<clipPath id="clip0_264_80">
<rect width="56" height="56" fill="white" transform="translate(20 20)"/>
</clipPath>
</defs>
</svg>
