<svg width="182" height="45" viewBox="0 0 182 45" fill="none" xmlns="http://www.w3.org/2000/svg">
<path d="M169.216 0.689004C171.382 0.25574 173.489 1.66059 173.922 3.82683L180.983 39.1277C181.416 41.2939 180.011 43.4012 177.845 43.8345C175.679 44.2678 173.571 42.8629 173.138 40.6967L166.862 9.31813L135.484 15.5941C133.317 16.0273 131.21 14.6225 130.777 12.4563C130.344 10.29 131.748 8.18271 133.915 7.74945L169.216 0.689004ZM8.51331 9.68657C10.3863 17.2287 18.191 24.0806 31.1631 29.1063C43.9103 34.0449 60.6196 36.7865 78.2387 36.8116C95.8402 36.8367 114.101 34.1501 129.931 28.4344C145.795 22.7065 158.894 14.06 166.672 2.39255L173.328 6.8301C164.278 20.4053 149.471 29.8845 132.648 35.9589C115.79 42.0456 96.5816 44.8378 78.2273 44.8116C59.8908 44.7854 42.1583 41.9456 28.273 36.5661C14.6125 31.2736 3.59415 23.0708 0.749146 11.6147L8.51331 9.68657Z" fill="#FAA900"/>
</svg>
