<svg width="162" height="103" viewBox="0 0 162 103" fill="none" xmlns="http://www.w3.org/2000/svg">
<path d="M158.377 59.7901C160.53 60.2869 161.872 62.4346 161.375 64.587L153.276 99.6634C152.779 101.816 150.631 103.158 148.478 102.661C146.325 102.164 144.983 100.017 145.48 97.8642L152.68 66.6852L121.499 59.4884C119.346 58.9916 118.004 56.8439 118.501 54.6914C118.998 52.539 121.146 51.1968 123.299 51.6936L158.377 59.7901ZM8.47221 2.18731C7.10159 9.77973 11.4 19.1834 21.1558 29.0535C30.74 38.7499 44.8263 48.0757 60.8491 55.3105C76.8557 62.5379 94.5686 67.5758 111.306 68.8718C128.079 70.1705 143.524 67.6899 155.358 60.2955L159.597 67.0794C145.818 75.6894 128.474 78.2248 110.687 76.8476C92.8644 75.4675 74.2464 70.1375 57.5562 62.6013C40.882 55.0725 25.9053 45.2391 15.4656 34.6771C5.19745 24.2888 -1.48916 12.3348 0.599158 0.766737L8.47221 2.18731Z" fill="white"/>
</svg>
