<svg width="264" height="46" viewBox="0 0 264 46" fill="none" xmlns="http://www.w3.org/2000/svg">
<path d="M260.063 1.4956C262.272 1.53041 264.034 3.34926 264 5.55812L263.432 41.5537C263.398 43.7625 261.579 45.5249 259.37 45.4901C257.161 45.4553 255.399 43.6365 255.433 41.4276L255.937 9.43159L223.941 8.92744C221.733 8.89264 219.97 7.07378 220.005 4.86492C220.04 2.65605 221.859 0.893628 224.067 0.928432L260.063 1.4956ZM7.73414 10.0991C9.06535 13.5617 12.6529 17.2267 19.0022 20.7593C25.2612 24.2416 33.6908 27.3078 43.8073 29.8397C64.0197 34.8981 90.3374 37.6699 117.944 37.6954C145.537 37.7208 174.224 35.0022 199.165 29.185C224.232 23.3385 244.975 14.4843 257.216 2.62247L262.784 8.36774C248.974 21.7485 226.518 31.0201 200.982 36.9759C175.322 42.961 146.004 45.7212 117.936 45.6954C89.8813 45.6695 62.8812 42.8599 41.8651 37.6003C31.3674 34.9731 22.2051 31.6961 15.1128 27.7501C8.11082 23.8545 2.58763 19.0062 0.266955 12.9698L7.73414 10.0991Z" fill="#FAA900"/>
</svg>
