<svg width="33" height="33" viewBox="0 0 33 33" fill="none" xmlns="http://www.w3.org/2000/svg">
<path d="M16.7701 8.66717C12.2615 8.66717 8.82597 12.1017 8.82597 16.6113C8.82597 21.121 12.2615 24.5555 16.7701 24.5555C21.2788 24.5555 24.7143 21.121 24.7143 16.6113C24.7143 12.1017 21.2788 8.66717 16.7701 8.66717ZM16.7701 21.9074C13.8565 21.9074 11.474 19.5327 11.474 16.6113C11.474 13.69 13.8495 11.3152 16.7701 11.3152C19.6908 11.3152 22.0663 13.69 22.0663 16.6113C22.0663 19.5327 19.6837 21.9074 16.7701 21.9074ZM27.3624 8.66717C27.3624 9.72367 25.7635 9.99119 24.7143 9.99119C23.658 9.99119 23.3903 9.71658 23.3903 8.66717C23.3903 7.61775 23.6651 6.01911 24.7143 6.01911C25.7635 6.01911 27.3624 7.61775 27.3624 8.66717ZM32.6585 9.99119C32.538 7.44566 31.8749 5.2288 30.0104 3.37106C28.1531 1.51331 25.9353 0.850637 23.3903 0.723006C20.7673 0.574102 12.7729 0.574102 10.15 0.723006C7.61211 0.843546 5.39427 1.51331 3.52985 3.37106C1.66543 5.2288 1.0094 7.44566 0.881794 9.99119C0.732924 12.6147 0.732924 20.6079 0.881794 23.2315C1.00231 25.777 1.66543 27.9939 3.52985 29.8516C5.39427 31.7093 7.60503 32.372 10.15 32.4997C12.7729 32.6486 20.7673 32.6486 23.3903 32.4997C25.9353 32.3791 28.1531 31.7164 30.0104 29.8516C31.8678 27.9939 32.5309 25.777 32.6585 23.2315C32.8074 20.6079 32.8074 12.6147 32.6585 9.99119ZM28.6864 25.8795C28.1335 27.2693 27.4349 27.9674 26.0383 28.5276C23.9471 29.3572 19.0812 29.8516 16.7701 29.8516C14.4591 29.8516 9.58612 29.3501 7.50194 28.5276C6.11248 27.9745 5.41392 27.2764 4.85388 25.8795C4.02446 23.7878 3.52985 18.9229 3.52985 16.6113C3.52985 14.2998 4.03155 9.42778 4.85388 7.34314C5.40683 5.95338 6.10539 5.25525 7.50194 4.69509C9.59321 3.86548 14.4591 3.37106 16.7701 3.37106C19.0812 3.37106 23.9542 3.87257 26.0383 4.69509C27.4278 5.24816 28.1264 5.94629 28.6864 7.34314C29.5158 9.43488 30.0104 14.2998 30.0104 16.6113C30.0104 18.9229 29.5158 23.7949 28.6864 25.8795Z" fill="white"/>
</svg>
