<svg width="64" height="64" viewBox="0 0 64 64" fill="none" xmlns="http://www.w3.org/2000/svg">
<path d="M59.8338 56.4567L50.5105 40.1756C50.8453 39.7822 51.3005 39.4912 51.8316 39.365C53.3002 39.0161 54.5181 38.0299 55.1726 36.6593C55.8274 35.2887 55.8327 33.7139 55.1877 32.3388C54.6939 31.2863 54.976 30.0397 55.8739 29.3075C57.0469 28.3507 57.7198 26.9295 57.7198 25.4083C57.7198 23.8871 57.0469 22.4657 55.8739 21.509C54.976 20.7768 54.6939 19.5302 55.1877 18.4777C55.8328 17.1025 55.8274 15.5277 55.1726 14.1571C54.5181 12.7865 53.3002 11.8003 51.8315 11.4514C50.7075 11.1844 49.9168 10.1848 49.9087 9.0205C49.8983 7.49929 49.2155 6.08283 48.0359 5.13436C46.8563 4.18589 45.3344 3.83002 43.8613 4.15827C42.7335 4.40926 41.5911 3.85465 41.0828 2.80918C40.4186 1.44322 39.1941 0.465625 37.723 0.127135C36.2517 -0.21148 34.7278 0.13376 33.5416 1.07386C32.6338 1.79346 31.3657 1.79346 30.4578 1.07386C29.2716 0.13376 27.7477 -0.21123 26.2765 0.127135C24.8054 0.465625 23.5809 1.44322 22.9168 2.80918C22.4085 3.85465 21.2655 4.40963 20.1383 4.15827C18.665 3.83027 17.1433 4.18589 15.9637 5.13436C14.7841 6.08283 14.1015 7.49929 14.0909 9.0205C14.0829 10.1847 13.2922 11.1844 12.1681 11.4514C10.6994 11.8003 9.4816 12.7865 8.827 14.1571C8.17228 15.5277 8.16695 17.1025 8.812 18.4776C9.3058 19.5301 9.02363 20.7766 8.12579 21.5089C6.95271 22.4657 6.27989 23.8869 6.27989 25.4081C6.27989 26.9293 6.95271 28.3507 8.12579 29.3074C9.02363 30.0396 9.3058 31.2862 8.812 32.3387C8.16682 33.7139 8.17228 35.2887 8.827 36.6593C9.4816 38.0299 10.6994 39.0161 12.1682 39.365C12.6993 39.4911 13.1544 39.7822 13.4893 40.1756L4.16608 56.4567C3.91503 56.8952 3.9511 57.4431 4.25733 57.8442C4.56367 58.2453 5.07967 58.4204 5.56429 58.288L12.0578 56.5118L13.779 63.0698C13.9075 63.5593 14.3161 63.9221 14.8139 63.989C14.8688 63.9964 14.9236 64 14.978 64C15.4165 64 15.8279 63.765 16.0513 63.375L24.0066 49.4828C24.6367 50.0708 25.4137 50.4908 26.2768 50.6894C27.7477 51.0276 29.2718 50.6828 30.4582 49.7427C31.3659 49.0231 32.6341 49.0231 33.542 49.7427C34.4297 50.4461 35.5063 50.8165 36.6086 50.8165C36.9792 50.8165 37.353 50.7746 37.7232 50.6894C38.5864 50.4908 39.3634 50.0708 39.9934 49.4828L47.9487 63.375C48.1722 63.7651 48.5835 64 49.022 64C49.0763 64 49.1312 63.9964 49.1862 63.989C49.6839 63.9221 50.0926 63.5591 50.221 63.0698L51.9422 56.5118L58.4357 58.288C58.9204 58.4208 59.4365 58.2453 59.7427 57.8442C60.0489 57.4431 60.085 56.8952 59.8338 56.4567ZM15.4071 59.5001L14.1358 54.6565C14.0513 54.3348 13.8431 54.0602 13.5572 53.8938C13.2712 53.7273 12.9314 53.6828 12.6128 53.7699L7.81659 55.0818L14.4189 43.5523C14.7313 44.3778 15.2577 45.1142 15.964 45.6822C17.1436 46.6306 18.6655 46.9865 20.1386 46.6583C20.9706 46.473 21.81 46.7275 22.3975 47.2931L15.4071 59.5001ZM37.1714 48.2522C36.4333 48.4218 35.6692 48.2488 35.0743 47.7775C34.1692 47.06 33.0847 46.7014 31.9999 46.7014C30.9154 46.7014 29.8305 47.0601 28.9256 47.7775C28.3307 48.249 27.5666 48.4221 26.8285 48.2522C26.0907 48.0825 25.4765 47.5921 25.1434 46.907C24.13 44.8226 21.8517 43.7165 19.6036 44.2172C18.8646 44.3818 18.1015 44.2033 17.5099 43.7276C16.9182 43.2519 16.5758 42.5415 16.5705 41.7785C16.5545 39.4572 14.978 37.4642 12.7369 36.9318C12.0002 36.7568 11.3895 36.2622 11.0611 35.5747C10.7328 34.8872 10.7301 34.0975 11.0536 33.4077C12.038 31.3092 11.4754 28.8239 9.6853 27.364C9.0969 26.8841 8.75956 26.1712 8.75956 25.4083C8.75956 24.6453 9.09702 23.9324 9.68542 23.4526C11.4754 21.9926 12.0381 19.5073 11.0536 17.4087C10.7301 16.719 10.7328 15.9292 11.0612 15.2418C11.3895 14.5543 12.0003 14.0597 12.7369 13.8847C14.978 13.3524 16.5545 11.3593 16.5705 9.038C16.5758 8.27502 16.9181 7.56454 17.5099 7.08893C18.1015 6.61319 18.8644 6.43457 19.6037 6.59932C21.8515 7.09968 24.13 5.99396 25.1434 3.90952C25.4765 3.22442 26.0907 2.73406 26.8285 2.56431C27.5665 2.39469 28.3307 2.56756 28.9256 3.03905C30.7358 4.47388 33.2641 4.47388 35.0743 3.03905C35.6693 2.56756 36.4334 2.39469 37.1714 2.56431C37.9092 2.73406 38.5234 3.22442 38.8565 3.90952C39.8699 5.99396 42.1481 7.09968 44.3963 6.59932C45.1351 6.43445 45.8984 6.61319 46.49 7.08893C47.0816 7.56466 47.4241 8.27502 47.4294 9.038C47.4454 11.3593 49.0219 13.3524 51.263 13.8847C51.9997 14.0597 52.6104 14.5543 52.9388 15.2418C53.2671 15.9293 53.2698 16.719 52.9463 17.4089C51.9619 19.5073 52.5245 21.9926 54.3146 23.4526C54.903 23.9324 55.2403 24.6453 55.2403 25.4083C55.2403 26.1712 54.9029 26.8841 54.3145 27.364C52.5245 28.8239 51.9618 31.3092 52.9463 33.4078C53.2698 34.0975 53.2671 34.8874 52.9387 35.5747C52.6104 36.2622 51.9996 36.7568 51.263 36.9318C49.0219 37.4642 47.4454 39.4572 47.4294 41.7785C47.4241 42.5415 47.0818 43.252 46.49 43.7276C45.8984 44.2033 45.1353 44.3817 44.3962 44.2172C42.1481 43.7163 39.8699 44.8226 38.8565 46.907C38.5234 47.5921 37.9092 48.0823 37.1714 48.2522ZM51.3871 53.7699C51.0684 53.6828 50.7286 53.7274 50.4427 53.8938C50.1568 54.0603 49.9485 54.3348 49.8641 54.6565L48.5928 59.5001L41.6025 47.2931C42.1901 46.7274 43.0296 46.4728 43.8613 46.6583C45.3348 46.9864 46.8563 46.6306 48.0359 45.6822C48.7422 45.1143 49.2686 44.3778 49.581 43.5523L56.1833 55.0818L51.3871 53.7699Z" fill="white"/>
<path d="M38.0166 35C38.2775 35 38.5384 34.9196 38.76 34.759C39.2021 34.4385 39.3879 33.8708 39.2205 33.3518L37.2271 27.168L42.484 23.314C42.9245 22.9911 43.1072 22.4223 42.937 21.9041C42.7667 21.3859 42.282 21.0355 41.7354 21.0355H35.2301L33.2016 14.8684C33.0311 14.3503 32.5465 14 32 14C31.4536 14 30.9689 14.3503 30.7985 14.8684L28.7699 21.0355H22.2647C21.7181 21.0355 21.2333 21.3859 21.063 21.9041C20.8927 22.4223 21.0754 22.9911 21.516 23.314L26.773 27.168L24.7795 33.3518C24.6122 33.8709 24.798 34.4385 25.2401 34.759C25.6823 35.0795 26.2808 35.0803 26.7238 34.7611L32.0003 30.9598L37.2768 34.7611C37.4974 34.9204 37.7569 35 38.0166 35ZM32.7401 28.3806C32.519 28.2213 32.2594 28.1417 31.9998 28.1417C31.7402 28.1417 31.4805 28.2213 31.2595 28.3806L28.3668 30.4646L29.4593 27.0755C29.6258 26.5588 29.4426 25.9936 29.0041 25.6722L26.1214 23.5588H29.6856C30.2321 23.5588 30.7168 23.2085 30.8872 22.6904L31.9998 19.3079L33.1124 22.6904C33.2829 23.2085 33.7675 23.5588 34.3139 23.5588H37.8781L34.9954 25.6722C34.557 25.9936 34.3737 26.5586 34.5403 27.0755L35.6328 30.4646L32.7401 28.3806Z" fill="white"/>
<path d="M50 25.4838C50 15.8432 42.1495 8 32.5 8C22.8505 8 15 15.8432 15 25.4838C15 32.8179 19.6346 39.4249 26.5328 41.9244C27.1816 42.1595 27.8986 41.8247 28.1341 41.1763C28.3695 40.5279 28.0342 39.8117 27.3852 39.5764C21.4726 37.434 17.5001 31.7706 17.5001 25.4838C17.5001 17.2205 24.2291 10.4977 32.5001 10.4977C40.7711 10.4977 47.5001 17.2205 47.5001 25.4838C47.5001 31.771 43.5273 37.4345 37.6143 39.5767C36.9653 39.8119 36.6299 40.5281 36.8652 41.1765C37.0496 41.6843 37.5292 42 38.0404 42C38.1819 42 38.3257 41.9758 38.4665 41.9248C45.365 39.4255 50 32.8184 50 25.4838Z" fill="white"/>
<path d="M32 40C31.737 40 31.479 40.1605 31.293 40.4395C31.107 40.7185 31 41.1055 31 41.5C31 41.8945 31.107 42.2815 31.293 42.5605C31.479 42.8395 31.737 43 32 43C32.263 43 32.521 42.8395 32.707 42.5605C32.893 42.2815 33 41.8945 33 41.5C33 41.1055 32.893 40.7185 32.707 40.4395C32.521 40.1605 32.263 40 32 40Z" fill="white"/>
</svg>
