<svg width="38" height="38" viewBox="0 0 38 38" fill="none" xmlns="http://www.w3.org/2000/svg">
<path d="M37.2611 30.2161L33.0485 27.4074L29.3035 24.9112C28.5808 24.4304 27.6095 24.588 27.076 25.2729L24.7587 28.2519C24.2609 28.8984 23.3654 29.0841 22.6516 28.6889C21.0793 27.8143 19.2199 26.9907 15.1173 22.8829C11.0147 18.775 10.1859 16.9209 9.31124 15.3485C8.91604 14.6347 9.1018 13.7392 9.74824 13.2415L12.7273 10.9242C13.4121 10.3907 13.5698 9.41944 13.0889 8.69663L10.6694 5.067L7.78407 0.738915C7.29297 0.00222807 6.30989 -0.218941 5.55064 0.236385L2.22302 2.2327C1.32373 2.76254 0.662674 3.61812 0.376788 4.62207C-0.533194 7.93983 -0.716659 15.2587 11.0127 26.9881C22.742 38.7175 30.0602 38.5334 33.3779 37.6233C34.3819 37.3375 35.2374 36.6765 35.7673 35.7771L37.7636 32.4495C38.219 31.6902 37.9978 30.7072 37.2611 30.2161Z" fill="#FAA900"/>
<path d="M20.9683 6.65013C26.6995 6.65649 31.3441 11.301 31.3504 17.0323C31.3504 17.3695 31.6238 17.643 31.9612 17.643C32.2984 17.643 32.5719 17.3696 32.5719 17.0323C32.5649 10.6267 27.3739 5.43577 20.9684 5.42871C20.6311 5.42871 20.3576 5.70212 20.3576 6.03945C20.3576 6.37665 20.631 6.65013 20.9683 6.65013Z" fill="#FAA900"/>
<path d="M21.0362 9.50026C25.1566 9.5051 28.4956 12.8441 28.5004 16.9644C28.5004 17.3392 28.8042 17.643 29.179 17.643C29.5537 17.643 29.8576 17.3392 29.8576 16.9644C29.852 12.0949 25.9059 8.14868 21.0362 8.14307C20.6615 8.14307 20.3576 8.44685 20.3576 8.82166C20.3576 9.19647 20.6614 9.50026 21.0362 9.50026Z" fill="#FAA900"/>
<path d="M20.8665 13.2327C22.2712 13.2344 23.4095 14.3726 23.4112 15.7773C23.4112 16.0584 23.639 16.2863 23.9201 16.2863C24.2012 16.2863 24.4291 16.0584 24.4291 15.7773C24.4268 13.8108 22.8331 12.2171 20.8666 12.2148C20.5855 12.2148 20.3576 12.4427 20.3576 12.7238C20.3576 13.0048 20.5854 13.2327 20.8665 13.2327Z" fill="#FAA900"/>
</svg>
