<svg width="43" height="43" viewBox="0 0 43 43" fill="none" xmlns="http://www.w3.org/2000/svg">
<path d="M43 38.2222V4.77778C43 2.15 40.8428 0 38.2103 0H4.78972C2.0425 0 0 2.03772 0 4.77778V38.2222C0 40.9647 2.0425 43 4.78972 43H38.2103C39.4779 42.9981 40.6933 42.4945 41.5908 41.5993C42.4883 40.704 42.9949 39.4899 43 38.2222ZM33.884 25.3389C33.884 25.3389 36.5882 28.0073 37.2547 29.2448C37.2738 29.2711 37.281 29.2949 37.2882 29.3045C37.5581 29.7584 37.6274 30.1167 37.4912 30.3795C37.2667 30.8167 36.5022 31.0364 36.2418 31.0556H31.4664C31.132 31.0556 30.4392 30.9696 29.5983 30.3891C28.9533 29.9399 28.3155 29.197 27.6944 28.4732C26.7675 27.3982 25.9648 26.4665 25.1574 26.4665C25.055 26.4663 24.9532 26.4832 24.8564 26.5167C24.2424 26.7126 23.4637 27.5845 23.4637 29.9137C23.4637 30.6423 22.8903 31.0579 22.4842 31.0579H20.296C19.5507 31.0579 15.6687 30.7976 12.2311 27.1688C8.01233 22.7255 4.22356 13.8126 4.19011 13.7337C3.95122 13.158 4.44572 12.8451 4.98322 12.8451H9.80878C10.4562 12.8451 10.664 13.2368 10.8121 13.588C10.9793 13.9869 11.61 15.5971 12.642 17.4078C14.3214 20.3533 15.3558 21.5526 16.1799 21.5526C16.334 21.5517 16.4854 21.5114 16.6195 21.4355C17.6969 20.8407 17.4962 16.9993 17.4484 16.2062C17.4484 16.0557 17.4461 14.4886 16.8966 13.7361C16.5001 13.1914 15.8288 12.9836 15.4227 12.9048C15.5883 12.6766 15.8062 12.4915 16.0581 12.3649C16.7963 11.997 18.1269 11.9444 19.4503 11.9444H20.1861C21.6218 11.9636 21.9945 12.0567 22.5129 12.1881C23.5616 12.4389 23.5831 13.1198 23.4899 15.437C23.4637 16.0963 23.435 16.8441 23.435 17.7208C23.435 17.9095 23.4278 18.1173 23.4278 18.3323C23.3944 19.5172 23.3562 20.8574 24.1923 21.4068C24.3005 21.4745 24.4254 21.5109 24.553 21.5119C24.8444 21.5119 25.7164 21.5119 28.079 17.458C29.1182 15.6687 29.9184 13.5569 29.9734 13.3993C30.0568 13.2288 30.1777 13.0794 30.3269 12.9621C30.4493 12.8986 30.5856 12.8665 30.7235 12.8689H36.3971C37.0182 12.8689 37.4387 12.9621 37.5175 13.1986C37.6537 13.5784 37.4912 14.7371 34.8993 18.2392L33.7454 19.7681C31.3948 22.8449 31.3948 23.0026 33.884 25.3389Z" fill="#0077FF"/>
</svg>
