<svg width="43" height="43" viewBox="0 0 43 43" fill="none" xmlns="http://www.w3.org/2000/svg">
<path d="M21.5 10.825C15.4415 10.825 10.825 15.4402 10.825 21.5C10.825 27.5598 15.4415 32.175 21.5 32.175C27.5585 32.175 32.175 27.5598 32.175 21.5C32.175 15.4402 27.5585 10.825 21.5 10.825ZM21.5 28.6166C17.5848 28.6166 14.3833 25.4255 14.3833 21.5C14.3833 17.5745 17.5753 14.3834 21.5 14.3834C25.4247 14.3834 28.6167 17.5745 28.6167 21.5C28.6167 25.4255 25.4152 28.6166 21.5 28.6166ZM35.7333 10.825C35.7333 12.2447 33.5848 12.6042 32.175 12.6042C30.7556 12.6042 30.3958 12.2352 30.3958 10.825C30.3958 9.41488 30.7651 7.26671 32.175 7.26671C33.5848 7.26671 35.7333 9.41488 35.7333 10.825ZM42.85 12.6042C42.688 9.18363 41.797 6.20473 39.2916 3.70839C36.7958 1.21204 33.8156 0.321571 30.3958 0.150066C26.8712 -0.0500221 16.1288 -0.0500221 12.6042 0.150066C9.1939 0.312043 6.21368 1.21204 3.70836 3.70839C1.20304 6.20473 0.3215 9.18363 0.150033 12.6042C-0.0500111 16.1296 -0.0500111 26.8704 0.150033 30.3958C0.311974 33.8164 1.20304 36.7953 3.70836 39.2916C6.21368 41.788 9.18438 42.6784 12.6042 42.8499C16.1288 43.05 26.8712 43.05 30.3958 42.8499C33.8156 42.688 36.7958 41.7975 39.2916 39.2916C41.7874 36.7953 42.6785 33.8164 42.85 30.3958C43.05 26.8704 43.05 16.1296 42.85 12.6042ZM37.5125 33.9541C36.7695 35.8216 35.8308 36.7597 33.9541 37.5125C31.144 38.6272 24.6054 39.2916 21.5 39.2916C18.3946 39.2916 11.8465 38.6177 9.04585 37.5125C7.17877 36.7693 6.24007 35.8312 5.48752 33.9541C4.37299 31.1434 3.70836 24.6061 3.70836 21.5C3.70836 18.3939 4.38252 11.8471 5.48752 9.04587C6.23055 7.17838 7.16925 6.24026 9.04585 5.48755C11.856 4.37277 18.3946 3.70839 21.5 3.70839C24.6054 3.70839 31.1535 4.3823 33.9541 5.48755C35.8212 6.23074 36.7599 7.16885 37.5125 9.04587C38.627 11.8566 39.2916 18.3939 39.2916 21.5C39.2916 24.6061 38.627 31.1529 37.5125 33.9541Z" fill="url(#paint0_linear_47_1936)"/>
<defs>
<linearGradient id="paint0_linear_47_1936" x1="-5.21775e-07" y1="4.64632" x2="38.2517" y2="39.3493" gradientUnits="userSpaceOnUse">
<stop stop-color="#2F1DFB"/>
<stop offset="0.503125" stop-color="#C913D2"/>
<stop offset="1" stop-color="#FD5917"/>
</linearGradient>
</defs>
</svg>
