<svg width="35" height="34" viewBox="0 0 35 34" fill="none" xmlns="http://www.w3.org/2000/svg">
<path d="M30.3762 5.6665H28.4623V4.24984C28.4623 3.49839 28.1638 2.77772 27.6325 2.24637C27.1011 1.71502 26.3804 1.4165 25.629 1.4165C24.8775 1.4165 24.1569 1.71502 23.6255 2.24637C23.0942 2.77772 22.7957 3.49839 22.7957 4.24984V5.6665H19.9623V4.24984C19.9623 3.49839 19.6638 2.77772 19.1325 2.24637C18.6011 1.71502 17.8804 1.4165 17.129 1.4165C16.3775 1.4165 15.6569 1.71502 15.1255 2.24637C14.5942 2.77772 14.2957 3.49839 14.2957 4.24984V5.6665H11.4623V4.24984C11.4623 3.49839 11.1638 2.77772 10.6325 2.24637C10.1011 1.71502 9.38044 1.4165 8.62899 1.4165C7.87754 1.4165 7.15687 1.71502 6.62552 2.24637C6.09417 2.77772 5.79566 3.49839 5.79566 4.24984V5.6665H3.88174C3.2624 5.66725 2.66864 5.91362 2.23071 6.35156C1.79277 6.78949 1.5464 7.38325 1.54565 8.00259V30.2443C1.54565 30.8641 1.79169 31.4586 2.22971 31.8971C2.66772 32.3357 3.26191 32.5824 3.88174 32.5832H30.3734C30.9932 32.5832 31.5877 32.3371 32.0263 31.8991C32.4648 31.4611 32.7116 30.8669 32.7123 30.2471V8.00259C32.7116 7.38325 32.4652 6.78949 32.0273 6.35156C31.5893 5.91362 30.9956 5.66725 30.3762 5.6665ZM24.2123 4.24984C24.2123 3.87411 24.3616 3.51378 24.6273 3.2481C24.8929 2.98243 25.2533 2.83317 25.629 2.83317C26.0047 2.83317 26.3651 2.98243 26.6307 3.2481C26.8964 3.51378 27.0457 3.87411 27.0457 4.24984V5.6665H24.2123V4.24984ZM15.7123 4.24984C15.7123 3.87411 15.8616 3.51378 16.1273 3.2481C16.3929 2.98243 16.7533 2.83317 17.129 2.83317C17.5047 2.83317 17.865 2.98243 18.1307 3.2481C18.3964 3.51378 18.5457 3.87411 18.5457 4.24984V5.6665H15.7123V4.24984ZM7.21232 4.24984C7.21232 3.87411 7.36158 3.51378 7.62725 3.2481C7.89293 2.98243 8.25327 2.83317 8.62899 2.83317C9.00471 2.83317 9.36505 2.98243 9.63072 3.2481C9.8964 3.51378 10.0457 3.87411 10.0457 4.24984V5.6665H7.21232V4.24984ZM31.2957 30.2471C31.2953 30.4908 31.1983 30.7245 31.026 30.8968C30.8536 31.0691 30.62 31.1661 30.3762 31.1665H3.88174C3.63801 31.1661 3.40437 31.0691 3.23203 30.8968C3.05968 30.7245 2.9627 30.4908 2.96232 30.2471V8.00259C2.9627 7.75886 3.05968 7.52522 3.23203 7.35288C3.40437 7.18053 3.63801 7.08355 3.88174 7.08317H10.0457C10.0457 7.4589 9.8964 7.81923 9.63072 8.08491C9.36505 8.35058 9.00471 8.49984 8.62899 8.49984C8.44113 8.49984 8.26096 8.57447 8.12812 8.7073C7.99528 8.84014 7.92066 9.02031 7.92066 9.20817C7.92066 9.39603 7.99528 9.5762 8.12812 9.70904C8.26096 9.84188 8.44113 9.91651 8.62899 9.91651C9.38044 9.91651 10.1011 9.618 10.6325 9.08664C11.1638 8.55529 11.4623 7.83462 11.4623 7.08317H18.5457C18.5457 7.4589 18.3964 7.81923 18.1307 8.08491C17.865 8.35058 17.5047 8.49984 17.129 8.49984C16.9411 8.49984 16.761 8.57447 16.6281 8.7073C16.4953 8.84014 16.4207 9.02031 16.4207 9.20817C16.4207 9.39603 16.4953 9.5762 16.6281 9.70904C16.761 9.84188 16.9411 9.91651 17.129 9.91651C17.8804 9.91651 18.6011 9.618 19.1325 9.08664C19.6638 8.55529 19.9623 7.83462 19.9623 7.08317H27.0457C27.0457 7.4589 26.8964 7.81923 26.6307 8.08491C26.3651 8.35058 26.0047 8.49984 25.629 8.49984C25.4411 8.49984 25.261 8.57447 25.1281 8.7073C24.9953 8.84014 24.9207 9.02031 24.9207 9.20817C24.9207 9.39603 24.9953 9.5762 25.1281 9.70904C25.261 9.84188 25.4411 9.91651 25.629 9.91651C26.3804 9.91651 27.1011 9.618 27.6325 9.08664C28.1638 8.55529 28.4623 7.83462 28.4623 7.08317H30.3762C30.62 7.08355 30.8536 7.18053 31.026 7.35288C31.1983 7.52522 31.2953 7.75886 31.2957 8.00259V30.2471Z" fill="white"/>
<path d="M28.0117 11.333H6.24607C5.7511 11.3338 5.27661 11.5307 4.92661 11.8807C4.57661 12.2307 4.37966 12.7052 4.37891 13.2002V27.8825C4.37966 28.3775 4.57661 28.852 4.92661 29.202C5.27661 29.552 5.7511 29.7489 6.24607 29.7497H28.0117C28.5067 29.7489 28.9812 29.552 29.3312 29.202C29.6812 28.852 29.8781 28.3775 29.8789 27.8825V13.2002C29.8781 12.7052 29.6812 12.2307 29.3312 11.8807C28.9812 11.5307 28.5067 11.3338 28.0117 11.333ZM28.4622 27.8825C28.4619 28.0019 28.4143 28.1162 28.3299 28.2006C28.2455 28.2851 28.1311 28.3326 28.0117 28.333H6.24607C6.12671 28.3326 6.01234 28.2851 5.92793 28.2006C5.84353 28.1162 5.79595 28.0019 5.79557 27.8825V13.2002C5.79595 13.0808 5.84353 12.9664 5.92793 12.882C6.01234 12.7976 6.12671 12.75 6.24607 12.7497H28.0117C28.1311 12.75 28.2455 12.7976 28.3299 12.882C28.4143 12.9664 28.4619 13.0808 28.4622 13.2002V27.8825Z" fill="white"/>
<path d="M24.2124 21.4863C23.6496 21.4889 23.1106 21.7137 22.7127 22.1116C22.3147 22.5096 22.09 23.0485 22.0874 23.6113V24.0831C22.0874 24.6467 22.3113 25.1872 22.7098 25.5857C23.1083 25.9842 23.6488 26.2081 24.2124 26.2081C24.776 26.2081 25.3165 25.9842 25.715 25.5857C26.1135 25.1872 26.3374 24.6467 26.3374 24.0831V23.6113C26.3348 23.0485 26.1101 22.5096 25.7121 22.1116C25.3142 21.7137 24.7752 21.4889 24.2124 21.4863ZM24.9207 24.0831C24.9207 24.2709 24.8461 24.4511 24.7133 24.5839C24.5804 24.7168 24.4003 24.7914 24.2124 24.7914C24.0245 24.7914 23.8444 24.7168 23.7115 24.5839C23.5787 24.4511 23.5041 24.2709 23.5041 24.0831V23.6113C23.5041 23.4235 23.5787 23.2433 23.7115 23.1105C23.8444 22.9776 24.0245 22.903 24.2124 22.903C24.4003 22.903 24.5804 22.9776 24.7133 23.1105C24.8461 23.2433 24.9207 23.4235 24.9207 23.6113V24.0831Z" fill="white"/>
<path d="M17.1289 21.4863C16.5661 21.4889 16.0271 21.7137 15.6292 22.1116C15.2312 22.5096 15.0065 23.0485 15.0039 23.6113V24.0831C15.0039 24.6467 15.2278 25.1872 15.6263 25.5857C16.0248 25.9842 16.5653 26.2081 17.1289 26.2081C17.6925 26.2081 18.233 25.9842 18.6315 25.5857C19.03 25.1872 19.2539 24.6467 19.2539 24.0831V23.6113C19.2513 23.0485 19.0266 22.5096 18.6286 22.1116C18.2307 21.7137 17.6917 21.4889 17.1289 21.4863ZM17.8372 24.0831C17.8372 24.2709 17.7626 24.4511 17.6298 24.5839C17.4969 24.7168 17.3168 24.7914 17.1289 24.7914C16.941 24.7914 16.7609 24.7168 16.628 24.5839C16.4952 24.4511 16.4206 24.2709 16.4206 24.0831V23.6113C16.4206 23.4235 16.4952 23.2433 16.628 23.1105C16.7609 22.9776 16.941 22.903 17.1289 22.903C17.3168 22.903 17.4969 22.9776 17.6298 23.1105C17.7626 23.2433 17.8372 23.4235 17.8372 23.6113V24.0831Z" fill="white"/>
<path d="M10.0457 21.4863C9.48287 21.4889 8.94388 21.7137 8.54593 22.1116C8.14798 22.5096 7.92326 23.0485 7.92065 23.6113V24.0831C7.92065 24.6467 8.14454 25.1872 8.54305 25.5857C8.94157 25.9842 9.48207 26.2081 10.0457 26.2081C10.6092 26.2081 11.1497 25.9842 11.5483 25.5857C11.9468 25.1872 12.1707 24.6467 12.1707 24.0831V23.6113C12.168 23.0485 11.9433 22.5096 11.5454 22.1116C11.1474 21.7137 10.6084 21.4889 10.0457 21.4863ZM10.754 24.0831C10.754 24.2709 10.6794 24.4511 10.5465 24.5839C10.4137 24.7168 10.2335 24.7914 10.0457 24.7914C9.85779 24.7914 9.67763 24.7168 9.54479 24.5839C9.41195 24.4511 9.33732 24.2709 9.33732 24.0831V23.6113C9.33732 23.4235 9.41195 23.2433 9.54479 23.1105C9.67763 22.9776 9.85779 22.903 10.0457 22.903C10.2335 22.903 10.4137 22.9776 10.5465 23.1105C10.6794 23.2433 10.754 23.4235 10.754 23.6113V24.0831Z" fill="white"/>
<path d="M24.2124 14.875C23.6496 14.8776 23.1106 15.1023 22.7127 15.5003C22.3147 15.8982 22.09 16.4372 22.0874 17V17.4717C22.0874 18.0353 22.3113 18.5758 22.7098 18.9744C23.1083 19.3729 23.6488 19.5967 24.2124 19.5967C24.776 19.5967 25.3165 19.3729 25.715 18.9744C26.1135 18.5758 26.3374 18.0353 26.3374 17.4717V17C26.3348 16.4372 26.1101 15.8982 25.7121 15.5003C25.3142 15.1023 24.7752 14.8776 24.2124 14.875ZM24.9207 17.4717C24.9207 17.6596 24.8461 17.8398 24.7133 17.9726C24.5804 18.1055 24.4003 18.1801 24.2124 18.1801C24.0245 18.1801 23.8444 18.1055 23.7115 17.9726C23.5787 17.8398 23.5041 17.6596 23.5041 17.4717V17C23.5041 16.8121 23.5787 16.632 23.7115 16.4991C23.8444 16.3663 24.0245 16.2917 24.2124 16.2917C24.4003 16.2917 24.5804 16.3663 24.7133 16.4991C24.8461 16.632 24.9207 16.8121 24.9207 17V17.4717Z" fill="white"/>
<path d="M17.1289 14.875C16.5661 14.8776 16.0271 15.1023 15.6292 15.5003C15.2312 15.8982 15.0065 16.4372 15.0039 17V17.4717C15.0039 18.0353 15.2278 18.5758 15.6263 18.9744C16.0248 19.3729 16.5653 19.5967 17.1289 19.5967C17.6925 19.5967 18.233 19.3729 18.6315 18.9744C19.03 18.5758 19.2539 18.0353 19.2539 17.4717V17C19.2513 16.4372 19.0266 15.8982 18.6286 15.5003C18.2307 15.1023 17.6917 14.8776 17.1289 14.875ZM17.8372 17.4717C17.8372 17.6596 17.7626 17.8398 17.6298 17.9726C17.4969 18.1055 17.3168 18.1801 17.1289 18.1801C16.941 18.1801 16.7609 18.1055 16.628 17.9726C16.4952 17.8398 16.4206 17.6596 16.4206 17.4717V17C16.4206 16.8121 16.4952 16.632 16.628 16.4991C16.7609 16.3663 16.941 16.2917 17.1289 16.2917C17.3168 16.2917 17.4969 16.3663 17.6298 16.4991C17.7626 16.632 17.8372 16.8121 17.8372 17V17.4717Z" fill="white"/>
<path d="M10.0457 14.875C9.48287 14.8776 8.94388 15.1023 8.54593 15.5003C8.14798 15.8982 7.92326 16.4372 7.92065 17V17.4717C7.92065 18.0353 8.14454 18.5758 8.54305 18.9744C8.94157 19.3729 9.48207 19.5967 10.0457 19.5967C10.6092 19.5967 11.1497 19.3729 11.5483 18.9744C11.9468 18.5758 12.1707 18.0353 12.1707 17.4717V17C12.168 16.4372 11.9433 15.8982 11.5454 15.5003C11.1474 15.1023 10.6084 14.8776 10.0457 14.875ZM10.754 17.4717C10.754 17.6596 10.6794 17.8398 10.5465 17.9726C10.4137 18.1055 10.2335 18.1801 10.0457 18.1801C9.85779 18.1801 9.67763 18.1055 9.54479 17.9726C9.41195 17.8398 9.33732 17.6596 9.33732 17.4717V17C9.33732 16.8121 9.41195 16.632 9.54479 16.4991C9.67763 16.3663 9.85779 16.2917 10.0457 16.2917C10.2335 16.2917 10.4137 16.3663 10.5465 16.4991C10.6794 16.632 10.754 16.8121 10.754 17V17.4717Z" fill="white"/>
</svg>
