<svg width="33" height="33" viewBox="0 0 33 33" fill="none" xmlns="http://www.w3.org/2000/svg">
<path d="M32.7701 29.0558V4.16688C32.7701 2.21133 31.1648 0.611328 29.2057 0.611328H4.33459C2.29014 0.611328 0.770142 2.12777 0.770142 4.16688V29.0558C0.770142 31.0967 2.29014 32.6113 4.33459 32.6113H29.2057C30.1491 32.6099 31.0535 32.2352 31.7215 31.5689C32.3894 30.9027 32.7664 29.9991 32.7701 29.0558ZM25.9861 19.4682C25.9861 19.4682 27.9986 21.454 28.4946 22.3749C28.5088 22.3944 28.5141 22.4122 28.5195 22.4193C28.7204 22.7571 28.7719 23.0238 28.6706 23.2193C28.5035 23.5447 27.9346 23.7082 27.7408 23.7224H24.187C23.9381 23.7224 23.4226 23.6584 22.7968 23.2264C22.3168 22.8922 21.8421 22.3393 21.3799 21.8007C20.6901 21.0007 20.0928 20.3073 19.4919 20.3073C19.4157 20.3071 19.34 20.3198 19.2679 20.3447C18.811 20.4904 18.2315 21.1393 18.2315 22.8727C18.2315 23.4149 17.8048 23.7242 17.5026 23.7242H15.8741C15.3195 23.7242 12.4306 23.5304 9.87236 20.83C6.73281 17.5233 3.91325 10.8904 3.88836 10.8318C3.71059 10.4033 4.07859 10.1704 4.47859 10.1704H8.0697C8.55148 10.1704 8.70614 10.462 8.81636 10.7233C8.94081 11.0202 9.41014 12.2184 10.1781 13.566C11.4279 15.758 12.1977 16.6504 12.811 16.6504C12.9257 16.6498 13.0383 16.6198 13.1381 16.5633C13.9399 16.1207 13.7906 13.262 13.755 12.6718C13.755 12.5598 13.7533 11.3936 13.3444 10.8336C13.0493 10.4282 12.5497 10.2736 12.2475 10.2149C12.3707 10.0451 12.5329 9.90729 12.7204 9.81311C13.2697 9.53933 14.2599 9.50022 15.2448 9.50022H15.7924C16.8608 9.51444 17.1381 9.58377 17.5239 9.68155C18.3044 9.86822 18.3204 10.3749 18.251 12.0993C18.2315 12.59 18.2101 13.1464 18.2101 13.7989C18.2101 13.9393 18.2048 14.094 18.2048 14.254C18.1799 15.1358 18.1515 16.1331 18.7737 16.542C18.8542 16.5924 18.9471 16.6195 19.0421 16.6202C19.259 16.6202 19.9079 16.6202 21.6661 13.6033C22.4395 12.2718 23.035 10.7002 23.0759 10.5829C23.138 10.456 23.228 10.3448 23.339 10.2576C23.4301 10.2103 23.5315 10.1864 23.6341 10.1882H27.8564C28.3186 10.1882 28.6315 10.2576 28.6901 10.4336C28.7915 10.7162 28.6706 11.5784 26.7417 14.1847L25.883 15.3224C24.1337 17.6122 24.1337 17.7296 25.9861 19.4682Z" fill="white"/>
</svg>
