<svg width="115" height="115" viewBox="0 0 115 115" fill="none" xmlns="http://www.w3.org/2000/svg">
<path d="M113.123 88.5594L70.7844 11.8424C68.1137 7.00464 63.024 4 57.5 4C51.976 4 46.8863 7.00464 44.2165 11.8424L1.87759 88.5594C0.649261 90.7842 0 93.3077 0 95.8585C0 104.207 6.80145 111 15.1611 111H99.8389C108.199 111 115 104.207 115 95.8585C115 93.3077 114.351 90.7842 113.123 88.5594ZM99.8389 107.635H15.1611C8.65887 107.635 3.36914 102.352 3.36914 95.8585C3.36914 93.8747 3.87363 91.9119 4.82822 90.1831L47.1671 13.4661C49.2439 9.7026 53.2035 7.36478 57.5 7.36478C61.7965 7.36478 65.7561 9.7026 67.8338 13.4661L110.173 90.1831C111.126 91.9119 111.631 93.8747 111.631 95.8585C111.631 102.352 106.341 107.635 99.8389 107.635Z" fill="#FAA900"/>
<path d="M65.4178 15.3825C63.9254 12.6792 61.0835 11 58 11C54.9165 11 52.0746 12.6792 50.5831 15.3825L30.9477 50.968C30.4964 51.786 30.7943 52.8136 31.6132 53.2644C32.4312 53.7153 33.4608 53.4176 33.9122 52.6005L53.5467 17.015C54.4432 15.3904 56.1497 14.3813 58 14.3813C59.8503 14.3813 61.5569 15.3904 62.4533 17.015L104.99 94.1085C105.405 94.8588 105.615 95.6794 105.615 96.5468C105.615 99.3434 103.337 101.619 100.538 101.619H15.4624C12.6627 101.619 10.385 99.3434 10.385 96.5468C10.385 95.6794 10.5948 94.8596 11.0091 94.1085L30.6444 58.523C31.0958 57.705 30.7978 56.6774 29.9789 56.2266C29.16 55.7757 28.1313 56.0734 27.68 56.8905L8.04458 92.4769C7.35172 93.7325 7 95.1027 7 96.5468C7 101.208 10.7957 105 15.4624 105H100.538C105.204 105 109 101.208 109 96.5468C109 95.1018 108.648 93.7325 107.955 92.476L65.4178 15.3825Z" fill="#FAA900"/>
<path d="M57 91C59.7569 91 62 88.7569 62 86C62 83.2431 59.7569 81 57 81C54.2431 81 52 83.2431 52 86C52 88.7569 54.2431 91 57 91ZM57 84.3333C57.9193 84.3333 58.6667 85.0807 58.6667 86C58.6667 86.9193 57.9193 87.6667 57 87.6667C56.0807 87.6667 55.3333 86.9193 55.3333 86C55.3333 85.0807 56.0807 84.3333 57 84.3333Z" fill="#FAA900"/>
<path d="M57 77C59.7569 77 62 74.7366 62 71.9545V45.0455C62 42.2634 59.7569 40 57 40C54.2431 40 52 42.2634 52 45.0455V71.9545C52 74.7366 54.2431 77 57 77ZM55.3333 45.0455C55.3333 44.1178 56.0807 43.3636 57 43.3636C57.9193 43.3636 58.6667 44.1178 58.6667 45.0455V71.9545C58.6667 72.8822 57.9193 73.6364 57 73.6364C56.0807 73.6364 55.3333 72.8822 55.3333 71.9545V45.0455Z" fill="#FAA900"/>
</svg>
