<svg width="70" height="71" viewBox="0 0 70 71" fill="none" xmlns="http://www.w3.org/2000/svg">
<g clip-path="url(#clip0_228_76)">
<path d="M67.7756 31.4303V18.9584C68.6837 18.3238 69.388 17.4004 69.7484 16.2876C69.9612 15.6263 70.0293 14.912 69.9508 14.1651L69.6186 10.9809C69.5598 10.4176 69.0545 10.008 68.4923 10.0675C67.929 10.1263 67.5201 10.6305 67.5788 11.1938L67.9112 14.3786C67.9597 14.8407 67.9211 15.2718 67.7969 15.6578C67.3729 16.9671 66.1628 17.8468 64.7857 17.8468C63.0413 17.8468 61.622 16.4275 61.622 14.6831V2.77763H66.7012L67.1538 7.11682C67.2087 7.64387 67.6539 8.03598 68.1723 8.03598C68.2079 8.03598 68.2439 8.0342 68.2799 8.03037C68.8432 7.97158 69.2522 7.46736 69.1935 6.90422L68.6453 1.64601C68.5908 1.12375 68.1505 0.72699 67.6255 0.72699H42.5633C42.5619 0.72699 42.5607 0.727126 42.5593 0.727126H36.8138C36.2887 0.727126 35.8485 1.12388 35.7941 1.64615L34.4881 14.1638C34.4087 14.9127 34.4765 15.6274 34.6901 16.2891C35.0498 17.4012 35.7543 18.3245 36.6628 18.959V26.4069H9.51385H2.63936C2.11422 26.4069 1.67398 26.8036 1.61957 27.3259L0.057832 42.2926C-0.0341797 43.1598 0.0440234 43.9867 0.290664 44.7508C0.71832 46.0726 1.56625 47.1647 2.65932 47.9002V63.0574C1.11371 63.591 0 65.0595 0 66.7842C0 68.9579 1.76846 70.7263 3.94215 70.7263H38.1756C40.3493 70.7263 42.1177 68.9577 42.1177 66.784C42.1177 65.0595 41.0041 63.5911 39.4588 63.0574V47.8993C40.5511 47.1639 41.3986 46.072 41.8261 44.7502C42.0716 43.9889 42.1507 43.163 42.0604 42.2944L41.6259 38.1302H66.5355C67.46 38.1302 68.3298 37.7696 68.9846 37.1148C69.6393 36.4601 70 35.5899 70 34.6644C70 33.191 69.0751 31.9303 67.7756 31.4303ZM51.1941 14.6832C51.1941 16.4274 49.7752 17.8462 48.0311 17.8462C46.2861 17.8462 44.8666 16.4274 44.8666 14.6832V2.7775H51.1941V14.6832ZM43.1463 18.5501C43.4023 18.3185 43.6353 18.0618 43.8413 17.784C44.7925 19.0651 46.3162 19.897 48.0311 19.897C49.7453 19.897 51.2686 19.0652 52.2195 17.7842C53.1703 19.0651 54.6937 19.897 56.4078 19.897C58.1222 19.897 59.6455 19.0651 60.5963 17.784C60.8028 18.0621 61.0362 18.3191 61.2927 18.551V24.3796C61.2927 25.4973 60.3835 26.4065 59.2658 26.4065H45.1731C44.0554 26.4065 43.1463 25.4973 43.1463 24.3796V18.5501ZM59.571 14.6832C59.571 16.4274 58.1521 17.8462 56.408 17.8462C54.6638 17.8462 53.245 16.4274 53.245 14.6832V2.7775H59.5712L59.571 14.6832ZM36.5274 14.3781L37.7378 2.77763H42.5634C42.5648 2.77763 42.566 2.7775 42.5674 2.7775H42.8158V14.6832C42.8158 16.4274 41.3969 17.8462 39.6528 17.8462C38.2748 17.8462 37.0645 16.9667 36.6413 15.6585C36.5166 15.272 36.4782 14.8418 36.5274 14.3781ZM38.7133 19.8118C39.0193 19.8673 39.3332 19.897 39.6528 19.897C40.1533 19.897 40.6369 19.8247 41.0955 19.6923V24.3796C41.0955 26.6281 42.9246 28.4572 45.1731 28.4572H59.2658C61.5143 28.4572 63.3434 26.6281 63.3434 24.3796V19.6929C63.8017 19.8251 64.2852 19.8973 64.7854 19.8973C65.1051 19.8973 65.4188 19.8675 65.7247 19.8121V31.1998H40.9031L40.4988 27.3253C40.4444 26.8031 40.004 26.4063 39.479 26.4063H38.7134V19.8118H38.7133ZM30.0496 42.893C30.0496 45.0889 28.263 46.8755 26.0671 46.8755C23.8711 46.8755 22.0846 45.0889 22.0846 42.893V28.4574H30.0496V42.893ZM12.0671 28.4574H20.0338V42.893C20.0338 45.0889 18.2473 46.8755 16.0513 46.8755C13.8545 46.8755 12.0672 45.0889 12.0672 42.893V28.4574H12.0671ZM2.0974 42.5072L3.5633 28.4572H9.51385H10.0163V42.8928C10.0163 45.0888 8.22978 46.8753 6.03381 46.8753C4.29885 46.8753 2.77512 45.7679 2.24219 44.1203C2.08441 43.6315 2.03561 43.0893 2.0974 42.5072ZM40.0671 66.7842C40.0671 67.8271 39.2186 68.6755 38.1757 68.6755H3.94215C2.89926 68.6755 2.05078 67.8269 2.05078 66.784C2.05078 65.7411 2.89926 64.8927 3.94215 64.8927H38.1756C39.2186 64.8927 40.0671 65.7413 40.0671 66.7842ZM37.4082 62.8413H4.7101V48.7799C5.13789 48.8752 5.581 48.9262 6.03381 48.9262C6.70728 48.9262 7.35451 48.8137 7.95977 48.6092V54.486C7.95977 57.0643 10.0566 59.1618 12.6342 59.1618H14C14.5663 59.1618 15.0254 58.7027 15.0254 58.1364C15.0254 57.5701 14.5663 57.111 14 57.111H12.6342C11.1874 57.111 10.0105 55.9335 10.0105 54.486V47.4245C10.4021 47.0804 10.7498 46.6875 11.0418 46.2538C12.1265 47.8645 13.9671 48.9264 16.0512 48.9264C18.1346 48.9264 19.9746 47.8646 21.0591 46.2541C22.1435 47.8647 23.9835 48.9264 26.0669 48.9264C28.1505 48.9264 29.9905 47.8646 31.0749 46.2538C31.3675 46.6881 31.7159 47.0816 32.1083 47.426V54.486C32.1083 55.9335 30.9314 57.111 29.4846 57.111H18.1016C17.5353 57.111 17.0762 57.5701 17.0762 58.1364C17.0762 58.7027 17.5353 59.1618 18.1016 59.1618H29.4848C32.0623 59.1618 34.1592 57.0643 34.1592 54.486V48.6096C34.7643 48.8139 35.4113 48.9262 36.0845 48.9262C36.5373 48.9262 36.9804 48.8752 37.4082 48.7798V62.8413ZM39.8747 44.1198C39.3415 45.768 37.8183 46.8755 36.0843 46.8755C33.8875 46.8755 32.1002 45.0889 32.1002 42.893V28.4574H38.5548L40.0207 42.5066C40.0813 43.0893 40.0321 43.6322 39.8747 44.1198ZM67.5346 35.6648C67.2671 35.9322 66.9123 36.0795 66.5355 36.0795H41.4121L41.1169 33.2507H66.5355C67.315 33.2507 67.9492 33.885 67.9492 34.6644C67.9492 35.042 67.802 35.3974 67.5346 35.6648Z" fill="#121212"/>
<path d="M62.094 49.5946H59.9888V47.4896C59.9888 45.0649 58.0161 43.0922 55.5914 43.0922C53.1666 43.0922 51.1939 45.0649 51.1939 47.4896V49.5946H49.0887C46.664 49.5946 44.6913 51.5674 44.6913 53.9921C44.6913 56.4168 46.664 58.3895 49.0887 58.3895H51.1939V60.4947C51.1939 62.9194 53.1666 64.8921 55.5914 64.8921C58.0161 64.8921 59.9888 62.9194 59.9888 60.4947V58.3895H62.094C64.5187 58.3895 66.4914 56.4168 66.4914 53.9921C66.4914 51.5674 64.5187 49.5946 62.094 49.5946ZM62.094 56.3387H58.9634C58.3971 56.3387 57.938 56.7978 57.938 57.3641V60.4947C57.938 61.7886 56.8853 62.8413 55.5914 62.8413C54.2974 62.8413 53.2447 61.7886 53.2447 60.4947V57.3641C53.2447 56.7978 52.7856 56.3387 52.2193 56.3387H49.0887C47.7948 56.3387 46.7421 55.286 46.7421 53.9921C46.7421 52.6982 47.7948 51.6454 49.0887 51.6454H52.2193C52.7856 51.6454 53.2447 51.1863 53.2447 50.62V47.4896C53.2447 46.1957 54.2974 45.1429 55.5914 45.1429C56.8853 45.1429 57.938 46.1957 57.938 47.4896V50.62C57.938 51.1863 58.3971 51.6454 58.9634 51.6454H62.094C63.3879 51.6454 64.4406 52.6982 64.4406 53.9921C64.4406 55.286 63.3879 56.3387 62.094 56.3387Z" fill="#121212"/>
</g>
<defs>
<clipPath id="clip0_228_76">
<rect width="70" height="70" fill="white" transform="translate(0 0.726562)"/>
</clipPath>
</defs>
</svg>
