<svg width="70" height="71" viewBox="0 0 70 71" fill="none" xmlns="http://www.w3.org/2000/svg">
<g clip-path="url(#clip0_228_80)">
<path d="M68.2911 56.85H65.1603V51.7227C65.1603 51.1562 64.7012 50.6973 64.1349 50.6973C63.5686 50.6973 63.1095 51.1562 63.1095 51.7227V56.85H43.9827V53.9125C44.2409 53.9363 44.5021 53.9501 44.7663 53.9501C48.3843 53.9501 51.4794 51.6754 52.7011 48.4816H58.8972C59.8522 48.4816 60.6291 47.7046 60.6291 46.7496V39.9073H63.1095V46.9375C63.1095 47.5039 63.5686 47.9629 64.1349 47.9629C64.7012 47.9629 65.1603 47.5039 65.1603 46.9375V39.5655C65.1603 38.6231 64.3937 37.8565 63.4513 37.8565H60.6291V9.16182C60.6291 8.20684 59.8522 7.42987 58.8972 7.42987H39.4035C39.3143 7.24461 39.2203 7.06155 39.1204 6.88162C38.8452 6.38657 38.2209 6.20842 37.726 6.4835C37.2311 6.75871 37.0528 7.38297 37.328 7.87789C38.0379 9.15498 38.413 10.6052 38.413 12.072C38.413 16.841 34.5331 20.721 29.7641 20.721C24.995 20.721 21.1151 16.841 21.1151 12.072C21.1151 7.30286 24.9949 3.42291 29.7641 3.42291C31.4056 3.42291 33.0048 3.88707 34.3884 4.76481C34.8664 5.06832 35.5001 4.92655 35.8036 4.4483C36.107 3.9702 35.9653 3.33651 35.4871 3.03313C33.7743 1.94649 31.7953 1.37213 29.7641 1.37213C23.8642 1.37213 19.0643 6.17205 19.0643 12.072C19.0643 17.682 23.405 22.2941 28.9038 22.734V23.9851H14.0827V14.3328C14.0827 12.2599 12.3963 10.5734 10.3233 10.5734H1.70882C0.766551 10.5736 -3.05176e-05 11.3403 -3.05176e-05 12.2824V15.2978C-3.05176e-05 16.24 0.766551 17.0066 1.70882 17.0066H8.0002V63.2068C8.0002 64.526 9.07358 65.5993 10.3928 65.5993H16.288C16.4452 68.0968 18.5259 70.0808 21.0625 70.0808C23.599 70.0808 25.6797 68.0968 25.8369 65.5993H28.164C28.7303 65.5993 29.1894 65.1404 29.1894 64.5739C29.1894 64.0075 28.7303 63.5485 28.164 63.5485H25.5159C24.8165 61.7719 23.0845 60.5105 21.0625 60.5105C19.0404 60.5105 17.3086 61.7719 16.609 63.5485H14.0825V58.9008H67.9492V63.5485H60.3985C59.699 61.7719 57.9671 60.5105 55.945 60.5105C53.9229 60.5105 52.1911 61.7719 51.4915 63.5485H32.9492C32.3829 63.5485 31.9238 64.0075 31.9238 64.5739C31.9238 65.1404 32.3829 65.5993 32.9492 65.5993H51.1705C51.3277 68.0968 53.4085 70.0808 55.945 70.0808C58.4816 70.0808 60.5623 68.0968 60.7195 65.5993H68.2911C69.2334 65.5993 70 64.8328 70 63.8903V58.5589C70 57.6166 69.2334 56.85 68.2911 56.85ZM12.0319 63.5485H10.3928C10.2044 63.5485 10.051 63.3953 10.051 63.2068V15.9812C10.051 15.4148 9.59188 14.9558 9.02559 14.9558H2.05075V12.6244H10.3233C11.2655 12.6244 12.0319 13.3908 12.0319 14.3329V63.5485ZM21.0625 62.5613C22.5702 62.5613 23.7968 63.7879 23.7968 65.2957C23.7968 66.8034 22.5702 68.0301 21.0625 68.0301C19.5547 68.0301 18.3281 66.8034 18.3281 65.2957C18.3281 63.7879 19.5547 62.5613 21.0625 62.5613ZM44.7663 51.8993C41.2138 51.8993 38.3237 49.0091 38.3237 45.4567C38.3237 41.9042 41.2138 39.014 44.7663 39.014C48.3188 39.014 51.2091 41.9042 51.2091 45.4567C51.2091 49.0091 48.3188 51.8993 44.7663 51.8993ZM58.5782 9.48065V13.0822H40.4146C40.4459 12.7495 40.4637 12.4129 40.4637 12.072C40.4637 11.1962 40.3544 10.3253 40.1437 9.48065H58.5782ZM30.9545 22.704C32.8067 22.4978 34.5168 21.8161 35.9616 20.7854H46.1421C46.7084 20.7854 47.1675 20.3264 47.1675 19.76C47.1675 19.1936 46.7084 18.7346 46.1421 18.7346H38.1256C38.9692 17.678 39.6183 16.4599 40.0152 15.133H58.5782V46.4308H53.2022C53.2389 46.1109 53.2597 45.7863 53.2597 45.4567C53.2597 40.7734 49.4495 36.9632 44.7662 36.9632C40.0829 36.9632 36.2728 40.7734 36.2728 45.4567C36.2728 45.7863 36.2936 46.1109 36.3304 46.4308H30.9545V22.704ZM36.8317 48.4816C37.7179 50.7982 39.5895 52.6301 41.932 53.462V56.85H14.0827V39.9073H23.2561V44.7161C23.2561 45.5077 23.9 46.1516 24.6917 46.1516H28.9038V46.7496C28.9038 47.7046 29.6808 48.4816 30.6358 48.4816H36.8317ZM25.3069 39.9073H28.9038V44.1009H25.3069V39.9073ZM20.8809 26.0361H24.7884V29.3503H20.8809V26.0361ZM18.8301 26.0361V29.9655C18.8301 30.7571 19.4741 31.401 20.2657 31.401H25.4037C26.1953 31.401 26.8392 30.7571 26.8392 29.9655V26.0361H28.9037V37.8565H14.0827V26.0361H18.8301ZM55.945 68.0301C54.4373 68.0301 53.2106 66.8034 53.2106 65.2957C53.2106 63.7879 54.4373 62.5613 55.945 62.5613C57.4527 62.5613 58.6794 63.7879 58.6794 65.2957C58.6794 66.8034 57.4527 68.0301 55.945 68.0301Z" fill="#121212"/>
<path d="M47.4166 42.9934L44.2921 46.1181L42.1162 43.9423C41.7157 43.5419 41.0665 43.5419 40.6662 43.9423C40.2657 44.3428 40.2657 44.992 40.6662 45.3924L43.567 48.2933C43.7672 48.4935 44.0297 48.5936 44.2921 48.5936C44.5544 48.5936 44.8169 48.4935 45.0171 48.2933L48.8668 44.4436C49.2673 44.043 49.2673 43.3939 48.8668 42.9934C48.4664 42.5933 47.8171 42.5933 47.4166 42.9934Z" fill="#121212"/>
<path d="M52.9249 20.7854H53.9141C54.4803 20.7854 54.9394 20.3264 54.9394 19.76C54.9394 19.1936 54.4803 18.7346 53.9141 18.7346H52.9249C52.3586 18.7346 51.8995 19.1936 51.8995 19.76C51.8995 20.3264 52.3586 20.7854 52.9249 20.7854Z" fill="#121212"/>
<path d="M35.6188 25.3072H53.9141C54.4803 25.3072 54.9394 24.8482 54.9394 24.2818C54.9394 23.7154 54.4803 23.2564 53.9141 23.2564H35.6188C35.0525 23.2564 34.5934 23.7154 34.5934 24.2818C34.5934 24.8482 35.0525 25.3072 35.6188 25.3072Z" fill="#121212"/>
<path d="M53.9141 27.7781H43.4573C42.891 27.7781 42.4319 28.2371 42.4319 28.8035C42.4319 29.37 42.891 29.8289 43.4573 29.8289H53.9141C54.4803 29.8289 54.9394 29.37 54.9394 28.8035C54.9394 28.2371 54.4803 27.7781 53.9141 27.7781Z" fill="#121212"/>
<path d="M35.6188 29.8289H40.3485C40.9148 29.8289 41.3739 29.37 41.3739 28.8035C41.3739 28.2371 40.9148 27.7781 40.3485 27.7781H35.6188C35.0525 27.7781 34.5934 28.2371 34.5934 28.8035C34.5934 29.37 35.0525 29.8289 35.6188 29.8289Z" fill="#121212"/>
<path d="M54.9394 33.3255C54.9394 32.7591 54.4803 32.3001 53.9141 32.3001H35.6188C35.0525 32.3001 34.5934 32.7591 34.5934 33.3255C34.5934 33.8919 35.0525 34.3509 35.6188 34.3509H53.9141C54.4803 34.3509 54.9394 33.8918 54.9394 33.3255Z" fill="#121212"/>
<path d="M29.7639 18.419C30.3302 18.419 30.7893 17.9601 30.7893 17.3937V16.9578H31.5342C33.1548 16.9578 34.4735 15.6391 34.4735 14.0185C34.4735 12.3978 33.1548 11.0792 31.5342 11.0792H27.9971C27.5053 11.0792 27.1051 10.679 27.1051 10.1873V10.129C27.1051 9.89066 27.198 9.66658 27.3664 9.49814C27.5349 9.3297 27.7589 9.23687 27.9972 9.23687H32.2499C32.8162 9.23687 33.2753 8.77791 33.2753 8.21148C33.2753 7.64505 32.8162 7.18609 32.2499 7.18609H30.7894V6.75037C30.7894 6.18394 30.3303 5.72498 29.7641 5.72498C29.1978 5.72498 28.7387 6.18394 28.7387 6.75037V7.18623H27.9972C27.2111 7.18623 26.4721 7.49234 25.9164 8.04824C25.3605 8.604 25.0544 9.34324 25.0545 10.1292V10.1876C25.0546 11.8102 26.3747 13.1302 27.9972 13.1302H31.5343C32.0242 13.1302 32.4228 13.5287 32.4228 14.0187C32.4228 14.5087 32.0242 14.9073 31.5343 14.9073H27.2454C26.6791 14.9073 26.22 15.3662 26.22 15.9327C26.22 16.4991 26.6791 16.9581 27.2454 16.9581H28.7385V17.3939C28.7385 17.9601 29.1976 18.419 29.7639 18.419Z" fill="#121212"/>
</g>
<defs>
<clipPath id="clip0_228_80">
<rect width="70" height="70" fill="white" transform="translate(-3.05176e-05 0.726562)"/>
</clipPath>
</defs>
</svg>
