<svg width="72" height="71" viewBox="0 0 72 71" fill="none" xmlns="http://www.w3.org/2000/svg">
<path d="M69.0106 14.8031C69.273 14.8031 69.5246 14.7004 69.7102 14.5177C69.8958 14.3349 70 14.087 70 13.8285V3.97468C70 3.71618 69.8958 3.46827 69.7102 3.28548C69.5246 3.10269 69.273 3 69.0106 3H3.98945C3.72703 3 3.47536 3.10269 3.2898 3.28548C3.10425 3.46827 3 3.71618 3 3.97468V13.8285C3 14.087 3.10425 14.3349 3.2898 14.5177C3.47536 14.7004 3.72703 14.8031 3.98945 14.8031H10.2145V35.0253H3.98945C3.72703 35.0253 3.47536 35.128 3.2898 35.3108C3.10425 35.4936 3 35.7415 3 36V39.3418C3 39.6003 3.10425 39.8482 3.2898 40.031C3.47536 40.2138 3.72703 40.3165 3.98945 40.3165H6.67511V68.0253C6.67511 68.2838 6.77935 68.5317 6.96491 68.7145C7.15047 68.8973 7.40214 69 7.66456 69H65.3354C65.5979 69 65.8495 68.8973 66.0351 68.7145C66.2206 68.5317 66.3249 68.2838 66.3249 68.0253V40.3165H69.0106C69.273 40.3165 69.5246 40.2138 69.7102 40.031C69.8958 39.8482 70 39.6003 70 39.3418V36C70 35.7415 69.8958 35.4936 69.7102 35.3108C69.5246 35.128 69.273 35.0253 69.0106 35.0253H62.7855V14.8031H69.0106ZM4.9789 4.94937H68.0211V12.8538H4.9789V4.94937ZM35.7932 35.0253V29.3165C35.7932 29.058 35.689 28.81 35.5034 28.6272C35.3179 28.4445 35.0662 28.3418 34.8038 28.3418H31.4114C31.149 28.3418 30.8973 28.4445 30.7117 28.6272C30.5262 28.81 30.4219 29.058 30.4219 29.3165V35.0253H28.8433V29.3165C28.8434 29.1884 28.8179 29.0617 28.7682 28.9434C28.7185 28.8251 28.6456 28.7176 28.5537 28.6271C28.4618 28.5366 28.3527 28.4648 28.2326 28.4158C28.1125 28.3669 27.9838 28.3417 27.8539 28.3418H21.0691C20.8067 28.3418 20.555 28.4445 20.3694 28.6272C20.1839 28.81 20.0796 29.058 20.0796 29.3165V35.0253H15.5858V14.8031H57.4142V35.0253H35.7932ZM33.8143 35.0253H32.4008V30.2911H33.8143V35.0253ZM26.8644 31.6835H22.0585V30.2911H26.8644V31.6835ZM22.0585 33.6329H26.8644V35.0253H22.0585V33.6329ZM12.1934 14.8031H13.6069V35.0253H12.1934V14.8031ZM64.346 55.2152H8.65401V50.481H64.346V55.2152ZM8.65401 67.0506V57.1646H64.346V67.0506H8.65401ZM64.346 48.5316H8.65401V40.3165H64.346V48.5316ZM68.0211 38.3671H4.9789V36.9747H68.0211V38.3671ZM60.8066 35.0253H59.3931V14.8031H60.8066V35.0253Z" fill="#121212"/>
<path d="M14 8C14.2652 8 14.5196 7.89464 14.7071 7.70711C14.8946 7.51957 15 7.26522 15 7C15 6.73478 14.8946 6.48043 14.7071 6.29289C14.5196 6.10536 14.2652 6 14 6H10C9.73478 6 9.48043 6.10536 9.29289 6.29289C9.10536 6.48043 9 6.73478 9 7C9 7.26522 9.10536 7.51957 9.29289 7.70711C9.48043 7.89464 9.73478 8 10 8H14Z" fill="#121212"/>
</svg>
