<svg width="71" height="71" viewBox="0 0 71 71" fill="none" xmlns="http://www.w3.org/2000/svg">
<path d="M69 23.6998V17.5466C69 17.5332 68.9967 17.521 68.9961 17.5083C68.9948 17.4729 68.9913 17.4377 68.9856 17.4028C68.9811 17.3728 68.9761 17.3428 68.9689 17.3134C68.9617 17.284 68.9517 17.254 68.9412 17.2246C68.9299 17.1919 68.917 17.1598 68.9023 17.1285C68.8962 17.1169 68.8934 17.1041 68.8873 17.0919L61.692 3.51629C61.6093 3.3604 61.4857 3.22998 61.3345 3.13902C61.1833 3.04806 61.0102 3 60.8337 3H11.1663C10.9899 3 10.8167 3.04806 10.6655 3.13902C10.5143 3.22998 10.3907 3.3604 10.308 3.51629L3.1127 17.0919C3.10659 17.1041 3.10381 17.1169 3.09771 17.1285C3.08304 17.1598 3.07007 17.1919 3.05885 17.2246C3.0483 17.254 3.03886 17.2834 3.03109 17.3134C3.02332 17.3434 3.01888 17.3728 3.01443 17.4028C3.00872 17.4377 3.0052 17.4729 3.00389 17.5083C3.00389 17.521 3 17.5332 3 17.5466V23.6998C3.00234 25.0886 3.39656 26.4486 4.13733 27.6233C4.8781 28.798 5.93535 29.7399 7.18752 30.3405V61.6476H3.97152C3.71386 61.6476 3.46675 61.75 3.28455 61.9322C3.10236 62.1143 3 62.3615 3 62.6191V68.0285C2.99993 68.1561 3.02501 68.2825 3.0738 68.4004C3.1226 68.5183 3.19416 68.6254 3.28439 68.7156C3.37462 68.8058 3.48175 68.8774 3.59965 68.9262C3.71755 68.975 3.84392 69.0001 3.97152 69H68.0285C68.1561 69.0001 68.2824 68.975 68.4004 68.9262C68.5183 68.8774 68.6254 68.8058 68.7156 68.7156C68.8058 68.6254 68.8774 68.5183 68.9262 68.4004C68.975 68.2825 69.0001 68.1561 69 68.0285V62.6191C69 62.3615 68.8976 62.1143 68.7154 61.9322C68.5332 61.75 68.2861 61.6476 68.0285 61.6476H64.8153V30.3405C66.0669 29.7395 67.1236 28.7975 67.8638 27.6228C68.6041 26.4481 68.9979 25.0883 69 23.6998ZM67.057 23.6998C67.0642 24.4181 66.929 25.1306 66.6592 25.7963C66.3894 26.4619 65.9902 27.0675 65.4849 27.578C64.9796 28.0884 64.3781 28.4936 63.7152 28.7702C63.0523 29.0467 62.3411 29.1891 61.6228 29.1891C60.9046 29.1891 60.1934 29.0467 59.5305 28.7702C58.8676 28.4936 58.2661 28.0884 57.7608 27.578C57.2554 27.0675 56.8563 26.4619 56.5865 25.7963C56.3167 25.1306 56.1815 24.4181 56.1887 23.6998V18.5181H67.057V23.6998ZM17.7543 18.5181H28.6226V23.6998C28.6298 24.4181 28.4946 25.1306 28.2248 25.7963C27.955 26.4619 27.5558 27.0675 27.0505 27.578C26.5452 28.0884 25.9437 28.4936 25.2808 28.7702C24.6179 29.0467 23.9067 29.1891 23.1884 29.1891C22.4702 29.1891 21.759 29.0467 21.0961 28.7702C20.4332 28.4936 19.8317 28.0884 19.3264 27.578C18.821 27.0675 18.4219 26.4619 18.1521 25.7963C17.8823 25.1306 17.7471 24.4181 17.7543 23.6998V18.5181ZM29.8894 4.94302L28.7158 16.5751H18.1241L21.9424 4.94302H29.8894ZM40.1598 4.94302L41.3295 16.5751H30.6705L31.8425 4.94302H40.1598ZM50.0598 4.94302L53.8759 16.5751H43.2842L42.1106 4.94302H50.0598ZM30.5656 18.5181H41.4344V23.6998C41.4344 24.924 41.0211 26.1123 40.2615 27.0723C39.5018 28.0323 38.4404 28.7077 37.249 28.9891C36.0576 29.2705 34.8061 29.1415 33.6972 28.623C32.5883 28.1044 31.6869 27.2267 31.1391 26.1319C30.7595 25.3776 30.563 24.5443 30.5656 23.6998V18.5181ZM43.3774 18.5181H54.2457V23.6998C54.2459 24.9285 53.8298 26.121 53.0653 27.0828C52.3007 28.0446 51.2328 28.7189 50.0358 28.9959C48.8387 29.2728 47.5832 29.136 46.4739 28.6077C45.3646 28.0794 44.467 27.1909 43.9276 26.087C43.563 25.3442 43.3747 24.5273 43.3774 23.6998V18.5181ZM66.4163 16.5751H55.9239L52.1028 4.94302H60.2491L66.4163 16.5751ZM11.7509 4.94302H19.8972L16.0789 16.5751H5.58591L11.7509 4.94302ZM4.94304 23.6998V18.5181H15.8113V23.6998C15.8185 24.4181 15.6833 25.1306 15.4135 25.7963C15.1437 26.4619 14.7446 27.0675 14.2392 27.578C13.7339 28.0884 13.1324 28.4936 12.4695 28.7702C11.8066 29.0467 11.0954 29.1891 10.3772 29.1891C9.65888 29.1891 8.94773 29.0467 8.28482 28.7702C7.62192 28.4936 7.02041 28.0884 6.51509 27.578C6.00976 27.0675 5.61064 26.4619 5.34081 25.7963C5.07097 25.1306 4.93578 24.4181 4.94304 23.6998ZM67.057 67.057H4.94304V63.5906H67.057V67.057ZM31.2068 61.6476H16.5696V36.3001H31.2068V61.6476ZM62.8722 61.6476H33.1498V35.3285C33.1498 35.0709 33.0475 34.8238 32.8653 34.6416C32.6831 34.4594 32.436 34.357 32.1783 34.357H15.5992C15.3416 34.357 15.0944 34.4594 14.9122 34.6416C14.7301 34.8238 14.6277 35.0709 14.6277 35.3285V61.6476H9.13056V30.9634C10.6232 31.2298 12.1617 31.0256 13.5331 30.3791C14.9046 29.7326 16.0412 28.6758 16.7856 27.3549C17.4301 28.4847 18.362 29.4239 19.4867 30.0773C20.6114 30.7307 21.8889 31.075 23.1896 31.0753C24.4903 31.0756 25.7679 30.7318 26.8929 30.0789C28.0179 29.426 28.9502 28.4872 29.5952 27.3577C30.2404 28.4872 31.1727 29.426 32.2977 30.0789C33.4227 30.7319 34.7004 31.0758 36.0011 31.0758C37.3019 31.0758 38.5795 30.7319 39.7045 30.0789C40.8295 29.426 41.7618 28.4872 42.407 27.3577C43.0524 28.4873 43.985 29.4261 45.1102 30.079C46.2355 30.7319 47.5134 31.0756 48.8143 31.0754C50.1153 31.0751 51.393 30.7308 52.518 30.0774C53.6429 29.424 54.5751 28.4848 55.22 27.3549C55.9644 28.6758 57.101 29.7326 58.4724 30.3791C59.8439 31.0256 61.3824 31.2298 62.875 30.9634L62.8722 61.6476Z" fill="#121212"/>
<path d="M56.0465 34H37.9535C37.8282 33.9999 37.7042 34.0252 37.5885 34.0745C37.4728 34.1238 37.3677 34.196 37.2791 34.2871C37.1906 34.3782 37.1203 34.4864 37.0724 34.6055C37.0245 34.7245 36.9999 34.8521 37 34.9809V48.0191C36.9999 48.1479 37.0245 48.2755 37.0724 48.3945C37.1203 48.5136 37.1906 48.6217 37.2791 48.7128C37.3677 48.804 37.4728 48.8762 37.5885 48.9255C37.7042 48.9748 37.8282 49.0001 37.9535 49H56.0465C56.2994 49 56.5419 48.8966 56.7207 48.7127C56.8995 48.5287 57 48.2792 57 48.0191V34.9809C57 34.7208 56.8995 34.4713 56.7207 34.2873C56.5419 34.1033 56.2994 34 56.0465 34ZM55.0941 47.0376H38.9069V35.9619H55.0941V47.0376Z" fill="#121212"/>
</svg>
