<svg width="65" height="65" viewBox="0 0 65 65" fill="none" xmlns="http://www.w3.org/2000/svg">
<circle cx="32.5" cy="32.5" r="31.5" stroke="#FAA900" stroke-width="2"/>
<path d="M14.8488 19.0001C13.8346 19.0001 13.0012 19.865 13.0012 20.9116C13.0017 28.1225 13.0002 35.3335 13 42.5444C13 42.8959 13.2761 43.1807 13.6167 43.1808H16.7518C17.054 45.3327 18.8516 47 21.0179 47C23.1841 47 24.9805 45.3327 25.2827 43.1808H37.05C37.8836 43.1928 37.8836 41.8963 37.05 41.9081H25.284C24.9833 39.7549 23.1854 38.0901 21.0179 38.0901C19.8469 38.0901 18.7833 38.5768 18.0044 39.3628H14.2345C14.2345 33.2124 14.2345 27.062 14.2345 20.9116C14.2345 20.548 14.4965 20.2728 14.8488 20.2728H37.0488C37.4011 20.2728 37.6691 20.548 37.6691 20.9116V37.455C37.6504 38.3225 38.9211 38.3225 38.9024 37.455V25.3647H46.2988C46.7142 25.3647 46.8329 25.8104 46.9408 26.1812L48.7667 32.4576V39.3628H46.2301C45.4513 38.5768 44.3888 38.0901 43.2179 38.0901C42.0469 38.0901 40.9833 38.5768 40.2044 39.3628H26.5667C25.732 39.3507 25.732 40.6484 26.5667 40.6355H39.3252C39.057 41.2148 38.9024 41.8592 38.9024 42.5419C38.9024 44.9944 40.8411 47 43.2179 47C45.3841 47 47.1805 45.3327 47.4827 43.1808H49.3833C49.7239 43.1807 50 42.8959 50 42.5444V32.3631C49.9998 32.3013 49.9909 32.2397 49.9735 32.1803L48.0934 25.6914C47.7821 24.6167 47.1439 24.0907 46.2988 24.0907H38.9024V20.9115C38.9024 19.8649 38.063 19 37.0488 19L14.8488 19.0001ZM28.4179 25.3647L28.4166 27.9062C28.4162 28.7555 29.6503 28.7555 29.6512 27.9062L29.6524 26.6659L33.5752 29.8178L29.6524 32.9696V31.7243C29.651 31.3724 29.3732 31.0884 29.0321 31.0905H17.9345L17.9333 28.5451H26.5642C27.3873 28.5451 27.3873 27.2711 26.5642 27.2711H17.3131C16.9739 27.2724 16.6995 27.5563 16.6988 27.9062L16.7 31.7243C16.6987 32.0757 16.9737 32.3617 17.3143 32.3631H28.4179V34.2709C28.4199 34.7975 29.0056 35.0938 29.4103 34.773L34.9639 30.3199C35.282 30.0651 35.282 29.5692 34.9639 29.3144L29.4103 24.8613C29.0716 24.5898 28.4182 24.7271 28.4179 25.3647ZM40.75 26.6324C40.4076 26.6311 40.1296 26.9178 40.1309 27.2712V31.0905C40.1323 31.4419 40.4094 31.7256 40.75 31.7243H42.3435L43.3949 32.8142C43.5112 32.933 43.6685 32.9992 43.8321 32.9982H46.8047C47.2173 32.9984 47.5136 32.5885 47.396 32.1805L45.917 27.0885C45.8396 26.8181 45.5989 26.6324 45.3256 26.6324H40.75ZM41.3643 27.9051H44.8655L45.976 31.7243H44.0875L43.036 30.6393C42.9195 30.521 42.7622 30.4553 42.5988 30.4565H41.3643V27.9051ZM40.75 34.2709C39.9098 34.2516 39.9098 35.5623 40.75 35.5435H41.9845C42.8247 35.5628 42.8247 34.2521 41.9845 34.2709H40.75ZM21.0179 39.3628C22.728 39.3628 24.0988 40.7772 24.0988 42.5419C24.0988 44.3066 22.728 45.7274 21.0179 45.7274C19.3077 45.7274 17.9357 44.3066 17.9357 42.5419C17.9357 40.7772 19.3077 39.3628 21.0179 39.3628ZM43.2179 39.3628C44.928 39.3628 46.2988 40.7772 46.2988 42.5419C46.2988 44.3066 44.928 45.7274 43.2179 45.7274C41.5077 45.7274 40.1309 44.3066 40.1309 42.5419C40.1309 40.7772 41.5077 39.3628 43.2179 39.3628ZM14.2333 40.6355H17.1252C16.9418 41.0316 16.8133 41.4586 16.7506 41.9081H14.2333V40.6355ZM21.0179 40.6355C20.0035 40.6355 19.1643 41.4952 19.1643 42.5419C19.1643 43.5887 20.0035 44.4547 21.0179 44.4547C22.0323 44.4547 22.8655 43.5887 22.8655 42.5419C22.8655 41.4951 22.0323 40.6355 21.0179 40.6355ZM43.2179 40.6355C42.2035 40.6355 41.3643 41.4952 41.3643 42.5419C41.3643 43.5887 42.2034 44.4547 43.2179 44.4547C44.2323 44.4547 45.0655 43.5887 45.0655 42.5419C45.0655 41.4951 44.2323 40.6355 43.2179 40.6355ZM47.1094 40.6355H48.7667V41.9081H47.484C47.4212 41.4586 47.2927 41.0316 47.1094 40.6355ZM21.0179 41.9081C21.3658 41.9081 21.6321 42.1829 21.6321 42.5419C21.6321 42.9009 21.3658 43.1808 21.0179 43.1808C20.67 43.1808 20.3976 42.9009 20.3976 42.5419C20.3976 42.1829 20.67 41.9081 21.0179 41.9081ZM43.2179 41.9081C43.5658 41.9081 43.8321 42.1829 43.8321 42.5419C43.8321 42.9009 43.5658 43.1808 43.2179 43.1808C42.87 43.1808 42.5988 42.9009 42.5988 42.5419C42.5988 42.1829 42.87 41.9081 43.2179 41.9081Z" fill="#FAA900"/>
</svg>
