<svg width="65" height="65" viewBox="0 0 65 65" fill="none" xmlns="http://www.w3.org/2000/svg">
<circle cx="32.5" cy="32.5" r="31.5" stroke="#FAA900" stroke-width="2"/>
<path d="M50.9999 26.6667C50.9999 19.6822 45.3178 14 38.3333 14C35.1615 13.9963 32.1044 15.1863 29.7698 17.3335L30.6265 18.2665C32.7275 16.3342 35.4788 15.2633 38.3333 15.2667C44.6191 15.2667 49.7333 20.3808 49.7333 26.6667C49.7389 28.6047 49.2478 30.5119 48.307 32.2063C47.3662 33.9007 46.007 35.3259 44.3591 36.3458C44.3541 36.3489 44.3492 36.352 44.3444 36.3552C42.5404 37.4772 40.4577 38.0702 38.3333 38.0667C37.7302 38.0665 37.1281 38.0191 36.5324 37.9249L36.3345 39.1757C36.9956 39.2804 37.6639 39.3331 38.3333 39.3333C39.6168 39.3347 40.893 39.1406 42.1179 38.7576L42.7322 40.6H36.4333V41.8667H43.1545L43.5768 43.1333H36.4333V44.4H43.999L44.6992 46.5003C44.7412 46.6264 44.8218 46.7361 44.9297 46.8138C45.0375 46.8915 45.167 46.9333 45.2999 46.9333H47.8333C47.9336 46.9333 48.0326 46.9095 48.1219 46.8638C48.2112 46.818 48.2884 46.7517 48.3471 46.6703C48.4058 46.5889 48.4443 46.4947 48.4594 46.3955C48.4746 46.2963 48.4659 46.1949 48.4342 46.0997L45.4496 37.146C47.1639 35.9891 48.567 34.4279 49.535 32.6003C50.5031 30.7727 51.0062 28.7348 50.9999 26.6667ZM46.9545 45.6667H45.7564L43.307 38.3192C43.658 38.1693 44.0021 38.003 44.3392 37.8205L46.9545 45.6667ZM38.3333 18.4333C39.4889 18.4342 40.6313 18.6783 41.6863 19.1498C42.7413 19.6212 43.6853 20.3095 44.4568 21.1698C45.2283 22.0301 45.81 23.0432 46.1642 24.1431C46.5184 25.2431 46.6371 26.4053 46.5125 27.5541C46.3879 28.703 46.023 29.8127 45.4413 30.8112C44.8596 31.8097 44.0742 32.6745 43.1363 33.3495C42.1983 34.0245 41.1288 34.4944 39.9972 34.7288C38.8657 34.9632 37.6975 34.9568 36.5686 34.71L36.298 35.9475C38.1925 36.3632 40.1688 36.1892 41.9614 35.4489C43.7541 34.7085 45.2772 33.4372 46.3262 31.8058C47.3752 30.1744 47.8997 28.261 47.8294 26.3228C47.759 24.3845 47.0971 22.5142 45.9327 20.9631C44.7682 19.4121 43.1569 18.2545 41.3153 17.6461C39.4737 17.0376 37.4899 17.0073 35.6306 17.5594C33.7713 18.1114 32.1254 19.2192 30.9142 20.734C29.703 22.2489 28.9844 24.0981 28.8549 26.0333H26.9514C27.0946 23.4008 28.1487 20.9 29.9332 18.9594L29 18.1027C27.0007 20.2769 25.8267 23.0832 25.6825 26.0333H22.2581L21.1664 23.8501C21.1138 23.7449 21.033 23.6564 20.9329 23.5946C20.8329 23.5328 20.7176 23.5 20.6 23.5H16.1667C16.0587 23.5 15.9525 23.5276 15.8583 23.5802C15.764 23.6328 15.6847 23.7086 15.6279 23.8004C15.5712 23.8922 15.5388 23.997 15.534 24.1049C15.5291 24.2127 15.5519 24.32 15.6002 24.4166L16.7253 26.6667L15.6002 28.9167C15.5519 29.0133 15.5291 29.1206 15.534 29.2284C15.5388 29.3363 15.5712 29.4411 15.6279 29.5329C15.6847 29.6248 15.764 29.7006 15.8583 29.7532C15.9525 29.8057 16.0587 29.8333 16.1667 29.8333H20.6C20.7176 29.8333 20.8329 29.8006 20.9329 29.7388C21.033 29.6769 21.1138 29.5885 21.1664 29.4833L22.2581 27.3H25.683C25.7648 29.0508 26.2136 30.7648 27.0004 32.331L28.1329 31.7638C27.4345 30.3736 27.032 28.8537 26.9507 27.3H28.8547C28.9311 28.4925 29.2342 29.6595 29.748 30.7384L30.8922 30.195C30.4593 29.2858 30.1989 28.3042 30.1243 27.3H32.0327C32.0824 27.8038 32.1925 28.2998 32.3607 28.7773L33.5552 28.356C33.4345 28.014 33.351 27.6599 33.3062 27.3H35.2304C35.3874 28.0689 35.8242 28.7521 36.4563 29.2172C37.0884 29.6823 37.8706 29.8962 38.6514 29.8173C39.4322 29.7384 40.1559 29.3725 40.6821 28.7903C41.2084 28.2082 41.4998 27.4514 41.4998 26.6667C41.4998 25.8819 41.2084 25.1251 40.6821 24.543C40.1559 23.9609 39.4322 23.5949 38.6514 23.516C37.8706 23.4372 37.0884 23.651 36.4563 24.1161C35.8242 24.5812 35.3874 25.2644 35.2304 26.0333H33.3076C33.4393 24.9941 33.89 24.0213 34.5977 23.249C35.3054 22.4766 36.2352 21.9428 37.259 21.721C38.2827 21.4992 39.3501 21.6004 40.314 22.0106C41.2778 22.4208 42.0908 23.1198 42.6407 24.0114C43.1906 24.903 43.4505 25.9431 43.3846 26.9886C43.3186 28.034 42.9301 29.0333 42.2724 29.8487C41.6148 30.664 40.7204 31.2554 39.7127 31.5412C38.7049 31.827 37.6332 31.7932 36.6455 31.4445L36.2211 32.6381C37.4631 33.0774 38.8111 33.1185 40.0775 32.7556C41.3439 32.3928 42.4656 31.6441 43.2865 30.6138C44.1074 29.5835 44.5866 28.3229 44.6573 27.0075C44.7281 25.692 44.3869 24.3872 43.6813 23.2748C42.9757 22.1624 41.9407 21.2977 40.7205 20.8011C39.5004 20.3045 38.1557 20.2008 36.8738 20.5043C35.592 20.8079 34.4366 21.5036 33.5687 22.4946C32.7008 23.4856 32.1635 24.7226 32.0316 26.0333H30.1237C30.2858 23.9663 31.2207 22.0363 32.7422 20.6278C34.2636 19.2193 36.2599 18.4357 38.3333 18.4333ZM20.2086 28.5667H17.1914L17.8247 27.3H20.8419L20.2086 28.5667ZM17.8247 26.0333L17.1914 24.7667H20.2086L20.8419 26.0333H17.8247ZM36.5422 26.0333C36.6916 25.6108 36.9856 25.2546 37.3722 25.0278C37.7588 24.8011 38.2131 24.7182 38.6549 24.794C39.0966 24.8698 39.4973 25.0993 39.7862 25.442C40.0751 25.7847 40.2336 26.2185 40.2336 26.6667C40.2336 27.1149 40.0751 27.5486 39.7862 27.8913C39.4973 28.234 39.0966 28.4635 38.6549 28.5393C38.2131 28.6151 37.7588 28.5323 37.3722 28.3055C36.9856 28.0787 36.6916 27.7226 36.5422 27.3H38.3333V26.0333H36.5422ZM28.4147 36.888L27.9853 35.6964C28.3996 35.5471 28.8165 35.3861 29.2251 35.2176L29.708 36.3886C29.2821 36.5642 28.8469 36.7324 28.4147 36.888ZM20.6541 38.5892L20.5459 37.3271C22.6501 37.1461 24.7285 36.7388 26.7454 36.1122L27.1213 37.3218C25.0173 37.9754 22.8491 38.4003 20.6541 38.5892ZM33.2666 29.2C32.7629 29.2006 32.28 29.401 31.9238 29.7571C31.5676 30.1133 31.3672 30.5963 31.3666 31.1V31.3574L30.846 31.6413C26.9247 33.7765 22.5316 34.8967 18.0667 34.9H16.1667C15.7174 34.9001 15.2734 34.9958 14.8639 35.1806C14.4544 35.3654 14.089 35.6351 13.7917 35.9719L14.7417 36.8101C14.92 36.608 15.1393 36.4461 15.385 36.3352C15.6307 36.2243 15.8971 36.1668 16.1667 36.1667H17.4333V42.5H16.1667C15.6629 42.4994 15.18 42.299 14.8238 41.9429C14.4676 41.5867 14.2673 41.1037 14.2667 40.6V38.0667C14.2666 37.9174 14.284 37.7686 14.3185 37.6233L13.0865 37.3292C13.0289 37.5708 12.9999 37.8183 13 38.0667V40.6C13.0009 41.4396 13.3349 42.2445 13.9285 42.8381C14.5222 43.4318 15.3271 43.7657 16.1667 43.7667H17.4333V50.4167C17.4338 50.8364 17.6008 51.2389 17.8976 51.5357C18.1944 51.8325 18.5969 51.9995 19.0167 52H21.9593C22.3665 52.0001 22.7619 51.8626 23.0812 51.6099C23.4006 51.3572 23.6252 51.004 23.7188 50.6077C23.8123 50.2113 23.7692 49.795 23.5966 49.4262C23.4239 49.0574 23.1317 48.7577 22.7674 48.5756C22.6869 48.5357 22.6191 48.474 22.5718 48.3976C22.5246 48.3211 22.4997 48.2329 22.5 48.143V46.9333H24.4C24.568 46.9333 24.729 46.8666 24.8478 46.7478C24.9666 46.6291 25.0333 46.468 25.0333 46.3V44.6948C27.0556 45.2408 29.0066 46.0231 30.846 47.0253L31.3666 47.3094V47.5667C31.3666 48.0706 31.5668 48.5538 31.9231 48.9102C32.2795 49.2665 32.7627 49.4667 33.2666 49.4667C33.7705 49.4667 34.2538 49.2665 34.6101 48.9102C34.9665 48.5538 35.1666 48.0706 35.1666 47.5667V31.1C35.166 30.5963 34.9657 30.1133 34.6095 29.7571C34.2533 29.401 33.7704 29.2006 33.2666 29.2ZM22.3428 50.5744C22.2925 50.6248 22.2328 50.6649 22.1669 50.6922C22.1011 50.7194 22.0305 50.7334 21.9593 50.7333H19.0167C18.9327 50.7333 18.8521 50.7 18.7927 50.6406C18.7334 50.5812 18.7 50.5007 18.7 50.4167V43.7751C19.5475 43.7954 20.392 43.8561 21.2333 43.9571V48.143C21.2322 48.4683 21.3223 48.7874 21.4934 49.0642C21.6644 49.3409 21.9096 49.5642 22.2011 49.7087C22.2911 49.7534 22.3667 49.8225 22.4196 49.908C22.4724 49.9935 22.5002 50.0921 22.5 50.1926C22.5002 50.2635 22.4864 50.3336 22.4594 50.3991C22.4325 50.4646 22.3928 50.5242 22.3428 50.5744ZM23.7667 45.6667H22.5V44.1402C22.9242 44.2118 23.3464 44.2936 23.7667 44.3856V45.6667ZM31.3666 45.8666C27.469 43.7622 23.1282 42.611 18.7 42.5073V36.1594C23.1282 36.0556 27.469 34.9044 31.3666 32.8001V45.8666ZM33.9 47.5667C33.9 47.7346 33.8332 47.8957 33.7145 48.0145C33.5957 48.1333 33.4346 48.2 33.2666 48.2C33.0987 48.2 32.9376 48.1333 32.8188 48.0145C32.7 47.8957 32.6333 47.7346 32.6333 47.5667V31.1C32.6333 30.932 32.7 30.7709 32.8188 30.6522C32.9376 30.5334 33.0987 30.4667 33.2666 30.4667C33.4346 30.4667 33.5957 30.5334 33.7145 30.6522C33.8332 30.7709 33.9 30.932 33.9 31.1V47.5667Z" fill="#FAA900"/>
</svg>
