<svg width="65" height="65" viewBox="0 0 65 65" fill="none" xmlns="http://www.w3.org/2000/svg">
<path d="M51.7694 20.575H48.9144C48.9244 20.5085 48.9313 20.441 48.9313 20.3718V15.9531C48.9313 15.1949 48.3076 14.578 47.5411 14.578H41.4778C40.7113 14.578 40.0877 15.1949 40.0877 15.9531V20.3719C40.0877 20.4411 40.0945 20.5086 40.1046 20.5751H38.7027C38.7127 20.5086 38.7196 20.4412 38.7196 20.372V16.2687C38.7196 15.5106 38.0959 14.8937 37.3294 14.8937H33.4408C33.1136 14.8937 32.8483 15.156 32.8483 15.4797C32.8483 15.8034 33.1136 16.0656 33.4408 16.0656H37.3294C37.4426 16.0656 37.5347 16.1567 37.5347 16.2687V20.3719C37.5347 20.4839 37.4426 20.575 37.3294 20.575H29.6706C29.5574 20.575 29.4653 20.4839 29.4653 20.3719V16.2687C29.4653 16.1567 29.5574 16.0656 29.6706 16.0656H30.6762C31.0033 16.0656 31.2686 15.8034 31.2686 15.4797C31.2686 15.156 31.0033 14.8937 30.6762 14.8937H29.6706C28.904 14.8937 28.2804 15.5106 28.2804 16.2687V20.3719C28.2804 20.441 28.2873 20.5085 28.2973 20.575H26.8954C26.9055 20.5085 26.9123 20.441 26.9123 20.3718V14.375C26.9123 13.6169 26.2887 13 25.5221 13H19.459C18.6924 13 18.0688 13.6169 18.0688 14.375V20.3719C18.0688 20.4411 18.0757 20.5086 18.0857 20.5751H15.2306C14.5521 20.5751 14 21.1211 14 21.7923V23.0548C14 23.7259 14.5521 24.272 15.2306 24.272H15.5159V40.1531C15.5159 40.4768 15.7811 40.7391 16.1083 40.7391C16.4355 40.7391 16.7007 40.4768 16.7007 40.1531V24.2719H18.0688V51.7828C18.0688 51.8078 18.0482 51.8281 18.023 51.8281H16.7465C16.7212 51.8281 16.7007 51.8078 16.7007 51.7828V42.8875C16.7007 42.5638 16.4355 42.3016 16.1083 42.3016C15.7811 42.3016 15.5159 42.5638 15.5159 42.8875V51.7828C15.5159 52.454 16.0679 53 16.7465 53H18.023C18.7016 53 19.2536 52.454 19.2536 51.7828V49.6798H47.7464V51.7828C47.7464 52.454 48.2984 53 48.977 53H50.2535C50.9321 53 51.4841 52.454 51.4841 51.7828V30.2602C51.4841 29.9365 51.2189 29.6742 50.8917 29.6742C50.5645 29.6742 50.2993 29.9365 50.2993 30.2602V51.7828C50.2993 51.8078 50.2788 51.8281 50.2535 51.8281H48.977C48.9518 51.8281 48.9312 51.8078 48.9312 51.7828V24.2719H50.2993V27.5257C50.2993 27.8494 50.5645 28.1116 50.8917 28.1116C51.2189 28.1116 51.4841 27.8494 51.4841 27.5257V24.2719H51.7694C52.4479 24.2719 53 23.7259 53 23.0547V21.7922C53 21.121 52.4479 20.575 51.7694 20.575ZM41.2725 15.9531C41.2725 15.8411 41.3647 15.7499 41.4778 15.7499H47.541C47.6543 15.7499 47.7464 15.8411 47.7464 15.9531V20.3719C47.7464 20.4839 47.6542 20.5751 47.541 20.5751H41.4778C41.3646 20.5751 41.2725 20.4839 41.2725 20.3719V15.9531ZM21.8064 14.1719H23.1745V15.7327L22.6985 15.5562C22.5644 15.5064 22.4166 15.5064 22.2824 15.5562L21.8064 15.7327V14.1719ZM19.2535 14.375C19.2535 14.263 19.3457 14.1719 19.4589 14.1719H20.6216V16.5783C20.6216 16.7705 20.7169 16.9505 20.8766 17.0598C21.0363 17.1693 21.24 17.1944 21.4221 17.1269L22.4905 16.7305L23.5589 17.1269C23.6263 17.1519 23.6968 17.1642 23.7669 17.1642C23.8858 17.1642 24.0038 17.1287 24.1043 17.0598C24.264 16.9505 24.3593 16.7705 24.3593 16.5783V14.1719H25.5221C25.6354 14.1719 25.7275 14.263 25.7275 14.375V20.3719C25.7275 20.4839 25.6353 20.5751 25.5221 20.5751H19.459C19.3457 20.5751 19.2536 20.4839 19.2536 20.3719V14.375H19.2535ZM47.7464 48.5079H19.2536V47.1548H47.7464V48.5079ZM19.2536 45.7866V39.7883C19.254 39.6766 19.3459 39.5859 19.4589 39.5859H23.9266C24.0398 39.5859 24.1319 39.677 24.1319 39.7891V45.7859C24.1319 45.8816 24.0645 45.9615 23.9744 45.9829H19.4112C19.3212 45.9615 19.254 45.882 19.2536 45.7866ZM29.4653 45.7859V39.7828C29.4653 39.6708 29.5574 39.5797 29.6706 39.5797H37.3294C37.4426 39.5797 37.5347 39.6708 37.5347 39.7828V45.7859C37.5347 45.8816 37.4673 45.9614 37.3771 45.9828H29.6228C29.5327 45.9614 29.4653 45.8816 29.4653 45.7859ZM47.7464 45.7866C47.746 45.882 47.6788 45.9615 47.5888 45.9829H41.4301C41.3399 45.9615 41.2725 45.8816 41.2725 45.7859V39.7891C41.2725 39.677 41.3647 39.5859 41.4778 39.5859H42.6406V41.9923C42.6406 42.1845 42.7358 42.3645 42.8955 42.4738C43.0552 42.5832 43.259 42.6084 43.441 42.5409L44.5094 42.1446L45.5779 42.5409C45.6454 42.5659 45.7158 42.5782 45.7859 42.5782C45.9048 42.5782 46.0229 42.5427 46.1233 42.4738C46.283 42.3645 46.3783 42.1845 46.3783 41.9923V39.5859H47.541C47.654 39.5859 47.7459 39.6766 47.7463 39.7883V45.7866H47.7464ZM43.8254 41.1467V39.5859H45.1935V41.1467L44.7174 40.9702C44.5833 40.9204 44.4356 40.9204 44.3014 40.9702L43.8254 41.1467ZM47.7464 38.4307C47.6792 38.4208 47.611 38.414 47.5411 38.414H41.4778C40.7113 38.414 40.0877 39.0309 40.0877 39.7891V45.7859C40.0877 45.853 40.0942 45.9184 40.1036 45.9829H38.7036C38.713 45.9184 38.7196 45.853 38.7196 45.7859V39.7828C38.7196 39.0247 38.0959 38.4078 37.3294 38.4078H29.6706C28.904 38.4078 28.2804 39.0247 28.2804 39.7828V45.7859C28.2804 45.8529 28.287 45.9184 28.2964 45.9828H25.3008C25.3102 45.9183 25.3168 45.8529 25.3168 45.7859V39.789C25.3168 39.0308 24.6932 38.4139 23.9266 38.4139H19.4589C19.389 38.4139 19.3208 38.4207 19.2536 38.4306V37.0547H47.7464V38.4307ZM47.7464 35.8828H19.2536V34.5297H47.7464V35.8828ZM20.8766 29.8488C21.0363 29.9582 21.2402 29.9833 21.422 29.9158L22.4905 29.5195L23.559 29.9158C23.6264 29.9408 23.6969 29.9531 23.7669 29.9531C23.8859 29.9531 24.0039 29.9177 24.1044 29.8488C24.2641 29.7394 24.3594 29.5594 24.3594 29.3672V26.9608H25.5221C25.6354 26.9608 25.7275 27.052 25.7275 27.164V33.1609C25.7275 33.2565 25.6602 33.3363 25.5701 33.3578H19.411C19.3211 33.3363 19.254 33.2568 19.2536 33.1616V27.1632C19.254 27.0516 19.3459 26.9608 19.4589 26.9608H20.6216V29.3672C20.6216 29.5594 20.717 29.7394 20.8766 29.8488ZM21.8064 28.5217V26.9609H23.1745V28.5217L22.6985 28.3452C22.5643 28.2954 22.4166 28.2954 22.2824 28.3452L21.8064 28.5217ZM29.4653 33.1609V29.0577C29.4653 28.9456 29.5574 28.8545 29.6706 28.8545H37.3294C37.4426 28.8545 37.5347 28.9456 37.5347 29.0577V33.1609C37.5347 33.2565 37.4674 33.3363 37.3773 33.3578H29.6226C29.5326 33.3363 29.4653 33.2564 29.4653 33.1609ZM47.7464 33.1616C47.746 33.2568 47.6789 33.3363 47.589 33.3578H41.4299C41.3399 33.3363 41.2725 33.2564 41.2725 33.1609V27.164C41.2725 27.052 41.3647 26.9608 41.4778 26.9608H47.541C47.654 26.9608 47.7459 27.0516 47.7463 27.1632V33.1616H47.7464ZM47.7464 25.8056C47.6792 25.7957 47.611 25.7889 47.5411 25.7889H41.4778C40.7113 25.7889 40.0877 26.4058 40.0877 27.164V33.1609C40.0877 33.2279 40.0942 33.2934 40.1036 33.3578H38.7036C38.713 33.2933 38.7196 33.2279 38.7196 33.1609V29.0577C38.7196 28.2995 38.0959 27.6827 37.3294 27.6827H29.6706C28.904 27.6827 28.2804 28.2995 28.2804 29.0577V33.1609C28.2804 33.2279 28.287 33.2934 28.2964 33.3578H26.8964C26.9058 33.2933 26.9123 33.2279 26.9123 33.1609V27.164C26.9123 26.4058 26.2887 25.7889 25.5221 25.7889H23.848C23.8214 25.7853 23.7945 25.7828 23.767 25.7828C23.7395 25.7828 23.7126 25.7853 23.6861 25.7889H21.2951C21.2685 25.7853 21.2416 25.7828 21.2141 25.7828C21.1866 25.7828 21.1597 25.7853 21.1331 25.7889H19.4589C19.389 25.7889 19.3208 25.7957 19.2536 25.8056V24.2719H47.7464V25.8056ZM51.8152 23.0547C51.8152 23.0797 51.7946 23.1 51.7694 23.1H15.2306C15.2054 23.1 15.1848 23.0797 15.1848 23.0547V21.7922C15.1848 21.7672 15.2054 21.7469 15.2306 21.7469H51.7694C51.7946 21.7469 51.8152 21.7672 51.8152 21.7922V23.0547Z" fill="#FAA900"/>
<circle cx="32.5" cy="32.5" r="31.5" stroke="#FAA900" stroke-width="2"/>
</svg>
