<svg width="28" height="29" viewBox="0 0 28 29" fill="none" xmlns="http://www.w3.org/2000/svg">
<g opacity="1">
<g clip-path="url(#clip0_202_15)">
<path d="M23.8981 5.02382C18.4299 -0.44269 9.56558 -0.441378 4.09907 5.02683C-1.36743 10.495 -1.36612 19.3593 4.10208 24.8258C9.57029 30.2923 18.4346 30.291 23.9011 24.8228C26.5264 22.1967 28.0009 18.6352 28.0001 14.9218C27.9993 11.2091 26.5238 7.64871 23.8981 5.02382ZM21.2026 20.4267C21.202 20.4273 21.2014 20.4279 21.2007 20.4285V20.4239L20.4914 21.1285C19.574 22.0575 18.2379 22.4397 16.968 22.1365C15.6886 21.7941 14.4724 21.2489 13.3654 20.5219C12.3369 19.8646 11.3838 19.0962 10.5234 18.2305C9.73167 17.4446 9.0204 16.5816 8.40003 15.6545C7.72147 14.6569 7.18438 13.5702 6.80403 12.4252C6.368 11.0801 6.72932 9.60411 7.73738 8.61252L8.56803 7.78187C8.79897 7.54989 9.17424 7.54907 9.40617 7.78001C9.40677 7.78061 9.40743 7.78122 9.40803 7.78187L12.0307 10.4045C12.2627 10.6355 12.2635 11.0107 12.0325 11.2427C12.0319 11.2433 12.0313 11.2439 12.0307 11.2445L10.4907 12.7845C10.0488 13.2216 9.99324 13.9161 10.36 14.4179C10.917 15.1823 11.5334 15.9016 12.2034 16.5692C12.9504 17.3194 13.7624 18.0019 14.63 18.6086C15.1313 18.9582 15.811 18.8993 16.2447 18.4686L17.7333 16.9566C17.9643 16.7246 18.3395 16.7238 18.5715 16.9547C18.5721 16.9553 18.5727 16.9559 18.5733 16.9566L21.2007 19.5886C21.4327 19.8195 21.4335 20.1947 21.2026 20.4267Z" fill="#BCBCBC"/>
</g>
</g>
<defs>
<clipPath id="clip0_202_15">
<rect y="0.924805" width="28" height="28" rx="14" fill="white"/>
</clipPath>
</defs>
</svg>
