<svg width="30" height="29" viewBox="0 0 30 29" fill="none" xmlns="http://www.w3.org/2000/svg">
<g clip-path="url(#clip0_202_6)">
<path d="M15 0.925781C6.98602 0.925781 0.487854 7.19337 0.487854 14.9252C0.487854 22.657 6.98539 28.9245 15 28.9245C23.0154 28.9245 29.5122 22.657 29.5122 14.9252C29.5122 7.19337 23.0154 0.925781 15 0.925781ZM15 5.11176C17.6518 5.11176 19.8007 7.18538 19.8007 9.74235C19.8007 12.2999 17.6518 14.3729 15 14.3729C12.3495 14.3729 10.2007 12.2999 10.2007 9.74235C10.2007 7.18538 12.3495 5.11176 15 5.11176ZM14.9969 25.2644C12.3521 25.2644 9.92977 24.3352 8.0614 22.7972C7.60626 22.4227 7.34363 21.8735 7.34363 21.2973C7.34363 18.704 9.51925 16.6286 12.208 16.6286H17.7934C20.4828 16.6286 22.6501 18.704 22.6501 21.2973C22.6501 21.8741 22.3887 22.422 21.933 22.7966C20.0652 24.3352 17.6423 25.2644 14.9969 25.2644Z" fill="#BBBBBB"/>
</g>
<defs>
<clipPath id="clip0_202_6">
<rect width="29.0244" height="28" fill="white" transform="translate(0.487854 0.924805)"/>
</clipPath>
</defs>
</svg>
